<svg width="29" height="30" viewBox="0 0 29 30" fill="none" xmlns="http://www.w3.org/2000/svg">
<path d="M0.355469 28.2578C0.355469 28.0104 0.440104 27.8216 0.609375 27.6914C0.765625 27.5612 0.954427 27.4635 1.17578 27.3984C1.39714 27.3203 1.61849 27.2617 1.83984 27.2227C2.07422 27.1706 2.26302 27.099 2.40625 27.0078C2.44531 26.9818 2.4974 26.9427 2.5625 26.8906C2.6276 26.8255 2.69922 26.7604 2.77734 26.6953C2.85547 26.6172 2.93359 26.5521 3.01172 26.5C3.08984 26.4349 3.14844 26.3893 3.1875 26.3633L4.125 25.8945C4.24219 25.8424 4.38542 25.6927 4.55469 25.4453C4.73698 25.1979 4.91276 24.9245 5.08203 24.625C5.26432 24.3125 5.43359 24.013 5.58984 23.7266C5.74609 23.4271 5.85677 23.2057 5.92188 23.0625C5.94792 23.0365 5.96745 22.9648 5.98047 22.8477C5.99349 22.7305 6 22.6393 6 22.5742C6.01302 22.5221 6.03906 22.457 6.07812 22.3789C6.11719 22.2878 6.13672 22.2292 6.13672 22.2031C6.16276 22.1771 6.20833 22.1185 6.27344 22.0273C6.33854 21.9232 6.41016 21.819 6.48828 21.7148C6.56641 21.6107 6.63151 21.513 6.68359 21.4219C6.7487 21.3177 6.78776 21.2526 6.80078 21.2266C6.8138 21.2135 6.82682 21.168 6.83984 21.0898C6.85286 20.9987 6.86589 20.9076 6.87891 20.8164C6.89193 20.7122 6.90495 20.6146 6.91797 20.5234C6.93099 20.4323 6.9375 20.3737 6.9375 20.3477C7.01562 19.931 7.1263 19.5143 7.26953 19.0977C7.42578 18.668 7.57552 18.2448 7.71875 17.8281C7.875 17.4115 8.01172 16.9883 8.12891 16.5586C8.24609 16.1289 8.32422 15.6927 8.36328 15.25L9.71094 11.5391C9.89323 11.0182 9.9974 10.4714 10.0234 9.89844C10.0625 9.3125 10.1602 8.73958 10.3164 8.17969C10.5378 7.67188 10.8047 7.17708 11.1172 6.69531C11.4297 6.20052 11.7161 5.67318 11.9766 5.11328C12.0677 4.82682 12.1198 4.52734 12.1328 4.21484C12.1589 3.88932 12.263 3.58984 12.4453 3.31641C12.5104 3.22526 12.6732 3.04948 12.9336 2.78906C13.194 2.52865 13.474 2.26172 13.7734 1.98828C14.0729 1.71484 14.3659 1.47396 14.6523 1.26562C14.9388 1.05729 15.1471 0.953125 15.2773 0.953125C15.5247 0.953125 15.694 1.04427 15.7852 1.22656C15.8503 1.27865 15.9154 1.36328 15.9805 1.48047C16.0586 1.59766 16.0977 1.66927 16.0977 1.69531C16.1628 1.92969 16.2539 2.16406 16.3711 2.39844C16.4883 2.63281 16.5859 2.88672 16.6641 3.16016L16.6445 3.58984C16.6445 3.77214 16.6836 3.96745 16.7617 4.17578C16.8529 4.37109 16.9245 4.53385 16.9766 4.66406C17.1198 5.11979 17.2435 5.5625 17.3477 5.99219C17.4648 6.42188 17.556 6.85156 17.6211 7.28125C17.6732 7.54167 17.7578 7.78255 17.875 8.00391C17.9922 8.21224 18.0508 8.45312 18.0508 8.72656L18.0312 9.03906C18.2656 9.2474 18.4414 9.4362 18.5586 9.60547C18.6758 9.77474 18.7669 9.95052 18.832 10.1328C18.9102 10.3021 18.9818 10.4909 19.0469 10.6992C19.125 10.8945 19.2422 11.1354 19.3984 11.4219C19.5286 11.6823 19.6263 11.9297 19.6914 12.1641C19.7565 12.3854 19.8086 12.6133 19.8477 12.8477C19.8997 13.082 19.9518 13.3294 20.0039 13.5898C20.056 13.8503 20.1406 14.1302 20.2578 14.4297C20.2708 14.4948 20.3099 14.6055 20.375 14.7617C20.4531 14.918 20.4922 15.0221 20.4922 15.0742V15.8164C20.4922 15.8424 20.5182 15.901 20.5703 15.9922C20.6224 16.0833 20.681 16.1875 20.7461 16.3047C20.8112 16.4089 20.8698 16.513 20.9219 16.6172C20.974 16.7214 21 16.793 21 16.832C21 16.8451 21 16.8841 21 16.9492C21.013 17.0013 21.0195 17.0664 21.0195 17.1445C21.0326 17.2096 21.0456 17.2747 21.0586 17.3398C21.0716 17.4049 21.0846 17.4375 21.0977 17.4375L21.6445 17.9844C21.7357 18.0625 21.7943 18.1536 21.8203 18.2578C21.8464 18.362 21.8659 18.4792 21.8789 18.6094C21.8919 18.7266 21.9049 18.8503 21.918 18.9805C21.931 19.0977 21.9701 19.2148 22.0352 19.332C22.1914 19.6966 22.3281 20.0742 22.4453 20.4648C22.5625 20.8424 22.7188 21.2201 22.9141 21.5977C23.0312 21.8711 23.1289 22.1641 23.207 22.4766C23.2852 22.776 23.3242 23.069 23.3242 23.3555V23.5898C23.4935 23.8893 23.6823 24.1562 23.8906 24.3906C24.099 24.625 24.2682 24.8529 24.3984 25.0742C24.5156 25.3607 24.6393 25.5885 24.7695 25.7578C24.8997 25.9271 25.0234 26.0638 25.1406 26.168C25.2708 26.2721 25.3945 26.3568 25.5117 26.4219C25.6289 26.474 25.7461 26.5326 25.8633 26.5977C26.1497 26.7669 26.4427 26.8906 26.7422 26.9688C27.0547 27.0469 27.4453 27.125 27.9141 27.2031L28.4609 27.3398C28.6302 27.444 28.7344 27.6003 28.7734 27.8086C28.8125 28.0039 28.832 28.1732 28.832 28.3164C28.832 28.5898 28.7214 28.7917 28.5 28.9219C28.2917 29.0391 28.0768 29.0977 27.8555 29.0977L26.1953 29H25.7852C25.7201 28.9479 25.6289 28.9089 25.5117 28.8828C25.4076 28.8438 25.2969 28.8177 25.1797 28.8047C25.0625 28.7917 24.9518 28.7852 24.8477 28.7852C24.7565 28.7852 24.6979 28.7786 24.6719 28.7656H22.3477C22.2435 28.6224 22.1458 28.5443 22.0547 28.5312C21.9766 28.5052 21.8594 28.4922 21.7031 28.4922C21.1693 28.4922 20.6094 28.5638 20.0234 28.707C19.4505 28.8372 18.8385 28.9023 18.1875 28.9023H17.7578C17.5495 28.9023 17.3477 28.8958 17.1523 28.8828C16.9701 28.8698 16.8073 28.8177 16.6641 28.7266C16.599 28.6875 16.5664 28.5768 16.5664 28.3945L16.6055 28.082C16.6315 28.0169 16.6445 27.9583 16.6445 27.9062C16.6445 27.8542 16.6445 27.8151 16.6445 27.7891C16.6445 27.6979 16.6836 27.6393 16.7617 27.6133C16.9961 27.5091 17.263 27.431 17.5625 27.3789C17.862 27.3268 18.1484 27.2682 18.4219 27.2031C18.6953 27.138 18.9232 27.0469 19.1055 26.9297C19.3008 26.8125 19.3984 26.6367 19.3984 26.4023V26.3633C19.3854 26.0638 19.3594 25.7253 19.3203 25.3477C19.2943 24.957 19.2812 24.5729 19.2812 24.1953C19.2812 24.0651 19.2357 23.9284 19.1445 23.7852C19.0664 23.6419 19.0208 23.5117 19.0078 23.3945V22.2031C18.9818 22.0339 18.8971 21.7669 18.7539 21.4023C18.6237 21.0247 18.4544 20.6536 18.2461 20.2891C18.0508 19.9245 17.8359 19.6055 17.6016 19.332C17.3672 19.0456 17.1328 18.9023 16.8984 18.9023C16.5599 18.9023 16.2083 18.974 15.8438 19.1172C15.4922 19.2604 15.1341 19.332 14.7695 19.332C14.457 19.332 14.1576 19.2734 13.8711 19.1562C13.5977 19.026 13.2721 18.9609 12.8945 18.9609H11.6445C11.3711 18.9609 11.0911 18.9805 10.8047 19.0195C10.5312 19.0456 10.2773 19.1302 10.043 19.2734C9.63932 19.5078 9.26823 19.8268 8.92969 20.2305C8.59115 20.6211 8.34375 21.1094 8.1875 21.6953L8.05078 23.0625C8.05078 23.0885 8.03776 23.1536 8.01172 23.2578C7.98568 23.362 7.95964 23.4727 7.93359 23.5898C7.90755 23.707 7.88151 23.8177 7.85547 23.9219C7.82943 24.013 7.81641 24.0716 7.81641 24.0977C7.81641 24.1237 7.8099 24.1628 7.79688 24.2148C7.78385 24.2669 7.77734 24.319 7.77734 24.3711C7.77734 24.6055 7.81641 24.7747 7.89453 24.8789C7.97266 24.9831 8.07031 25.1393 8.1875 25.3477C8.2526 25.4648 8.33724 25.6211 8.44141 25.8164C8.55859 26.0117 8.67578 26.181 8.79297 26.3242C8.97526 26.4805 9.21615 26.6042 9.51562 26.6953C9.82812 26.7865 10.1341 26.8841 10.4336 26.9883C10.7331 27.0924 10.987 27.2227 11.1953 27.3789C11.4167 27.5352 11.5273 27.75 11.5273 28.0234V28.1602C11.4622 28.668 11.2734 29 10.9609 29.1562C10.6484 29.3255 10.2448 29.4102 9.75 29.4102L8.05078 28.9609H7.34766C7.11328 28.9609 6.8724 28.9674 6.625 28.9805C6.3776 28.9935 6.13672 29.013 5.90234 29.0391C5.68099 29.0651 5.47917 29.0977 5.29688 29.1367C5.1276 29.1888 4.9974 29.2474 4.90625 29.3125C4.58073 29.3125 4.25521 29.319 3.92969 29.332C3.61719 29.3451 3.33073 29.3581 3.07031 29.3711C2.82292 29.3841 2.61458 29.3906 2.44531 29.3906C2.28906 29.4036 2.19792 29.4102 2.17188 29.4102C2.0026 29.4102 1.8138 29.3841 1.60547 29.332C1.39714 29.2799 1.19531 29.2018 1 29.0977C0.817708 28.9935 0.667969 28.8763 0.550781 28.7461C0.420573 28.6029 0.355469 28.4401 0.355469 28.2578ZM10.4141 15.0156C10.401 15.1589 10.388 15.3021 10.375 15.4453C10.362 15.5755 10.3555 15.6992 10.3555 15.8164C10.3555 16.181 10.4401 16.4284 10.6094 16.5586C10.7786 16.6758 11.0391 16.7344 11.3906 16.7344C11.4297 16.7344 11.4622 16.7214 11.4883 16.6953C11.5013 16.6823 11.5143 16.6628 11.5273 16.6367C11.5534 16.6367 11.638 16.6237 11.7812 16.5977C11.9375 16.5716 12.0482 16.5521 12.1133 16.5391C12.2305 16.5521 12.3411 16.5716 12.4453 16.5977C12.5625 16.6237 12.6536 16.6367 12.7188 16.6367H15.7852C16.6706 16.6367 17.1133 16.2331 17.1133 15.4258C17.1133 15.3086 17.0677 15.1589 16.9766 14.9766C16.8984 14.7943 16.8008 14.599 16.6836 14.3906C16.5664 14.1693 16.4492 13.9414 16.332 13.707C16.2279 13.4727 16.1497 13.2448 16.0977 13.0234C16.0977 12.9323 16.0651 12.8542 16 12.7891L15.082 11.4219C15.082 11.3568 15.056 11.2917 15.0039 11.2266C14.9648 11.1615 14.9323 11.0964 14.9062 11.0312L14.8086 10.6211C14.7435 10.3477 14.6654 10.0156 14.5742 9.625C14.4831 9.23438 14.3724 8.86328 14.2422 8.51172C14.112 8.16016 13.9622 7.86068 13.793 7.61328C13.6367 7.36589 13.4609 7.24219 13.2656 7.24219C13.1484 7.24219 12.9987 7.41146 12.8164 7.75C12.6341 8.08854 12.4323 8.51823 12.2109 9.03906C12.0026 9.5599 11.7878 10.1393 11.5664 10.7773C11.3581 11.4023 11.1693 12.0013 11 12.5742C10.8307 13.1471 10.6875 13.6615 10.5703 14.1172C10.4661 14.5599 10.4141 14.8594 10.4141 15.0156Z" fill="#0E00B0"/>
</svg>
