<svg width="149" height="24" viewBox="0 0 149 24" fill="none" xmlns="http://www.w3.org/2000/svg">
<path d="M0.640625 22.0469C0.640625 21.8906 0.713542 21.776 0.859375 21.7031C1.00521 21.6302 1.1875 21.5729 1.40625 21.5312C1.63542 21.4792 1.88021 21.4271 2.14062 21.375C2.40104 21.3229 2.64062 21.2396 2.85938 21.125C3.08854 21.0104 3.27604 20.849 3.42188 20.6406C3.56771 20.4323 3.64062 20.1458 3.64062 19.7812L3.53125 19.2656C3.53125 19.1927 3.55208 19.1354 3.59375 19.0938C3.63542 19.0417 3.68229 18.9948 3.73438 18.9531C3.78646 18.9115 3.83333 18.8646 3.875 18.8125C3.91667 18.7604 3.9375 18.6875 3.9375 18.5938L3.8125 17.5156L3.89062 16.8906C3.91146 16.8385 3.92188 16.7292 3.92188 16.5625C3.92188 16.2292 3.86979 15.9427 3.76562 15.7031C3.67188 15.4531 3.625 15.2083 3.625 14.9688C3.625 14.8229 3.63021 14.7344 3.64062 14.7031C3.76562 14.3073 3.86458 13.901 3.9375 13.4844C4.01042 13.0573 4.04688 12.651 4.04688 12.2656C4.04688 12.099 4.01042 11.9844 3.9375 11.9219L3.8125 9.07812C3.77083 8.90104 3.71354 8.70833 3.64062 8.5C3.56771 8.29167 3.53125 8.07812 3.53125 7.85938C3.53125 7.83854 3.53646 7.8125 3.54688 7.78125C3.55729 7.75 3.58854 7.66146 3.64062 7.51562C3.64062 7.01562 3.61979 6.52604 3.57812 6.04688C3.53646 5.55729 3.49479 5.05208 3.45312 4.53125L3.48438 4.04688C3.48438 4.03646 3.45833 4.00521 3.40625 3.95312C3.35417 3.90104 3.29167 3.84375 3.21875 3.78125C3.15625 3.71875 3.09896 3.65625 3.04688 3.59375C2.99479 3.53125 2.96875 3.48438 2.96875 3.45312C2.98958 3.40104 3.00521 3.35417 3.01562 3.3125C3.02604 3.27083 3.03125 3.22917 3.03125 3.1875C3.03125 3.13542 3.02604 3.08333 3.01562 3.03125C3.00521 2.96875 2.98958 2.91146 2.96875 2.85938C2.95833 2.80729 2.88542 2.75 2.75 2.6875C2.625 2.61458 2.46875 2.54688 2.28125 2.48438C2.09375 2.42188 1.89062 2.35938 1.67188 2.29688C1.46354 2.22396 1.26562 2.16146 1.07812 2.10938C0.901042 2.04688 0.75 1.98958 0.625 1.9375C0.510417 1.875 0.453125 1.82292 0.453125 1.78125C0.453125 1.63542 0.494792 1.51562 0.578125 1.42188C0.661458 1.31771 0.765625 1.23958 0.890625 1.1875C1.01562 1.125 1.15104 1.08333 1.29688 1.0625C1.45312 1.04167 1.60417 1.03125 1.75 1.03125C1.98958 1.125 2.23438 1.18229 2.48438 1.20312C2.74479 1.21354 2.99479 1.21875 3.23438 1.21875C3.86979 1.21875 4.44792 1.1875 4.96875 1.125C5.375 1.08333 5.80208 1.03646 6.25 0.984375C6.69792 0.932292 7.10938 0.875 7.48438 0.8125C7.70312 0.739583 7.86979 0.6875 7.98438 0.65625C8.09896 0.614583 8.16667 0.59375 8.1875 0.59375C8.3125 0.59375 8.40625 0.598958 8.46875 0.609375C8.54167 0.619792 8.59896 0.630208 8.64062 0.640625H10.2344C10.2865 0.661458 10.349 0.671875 10.4219 0.671875C10.5052 0.671875 10.5781 0.671875 10.6406 0.671875C10.7135 0.671875 10.7812 0.671875 10.8438 0.671875C10.9167 0.671875 10.9844 0.661458 11.0469 0.640625C11.6615 0.640625 12.25 0.71875 12.8125 0.875C13.375 1.03125 13.9531 1.19792 14.5469 1.375C14.5677 1.375 14.6406 1.39062 14.7656 1.42188C14.901 1.44271 15.0417 1.46875 15.1875 1.5C15.3438 1.53125 15.4896 1.5625 15.625 1.59375C15.7708 1.61458 15.8594 1.625 15.8906 1.625C15.9115 1.625 15.9479 1.65104 16 1.70312C16.0625 1.74479 16.1302 1.79167 16.2031 1.84375C16.276 1.88542 16.3385 1.92708 16.3906 1.96875C16.4531 2.01042 16.4948 2.03125 16.5156 2.03125L17.25 2.125C17.25 2.125 17.2656 2.14062 17.2969 2.17188C17.3385 2.20312 17.3802 2.23958 17.4219 2.28125C17.4635 2.32292 17.5052 2.35938 17.5469 2.39062C17.5885 2.42188 17.6198 2.44271 17.6406 2.45312C17.9323 2.67188 18.2448 2.84375 18.5781 2.96875C18.9219 3.08333 19.2604 3.24479 19.5938 3.45312C19.9271 3.84896 20.2969 4.24479 20.7031 4.64062C21.1094 5.03646 21.4948 5.44271 21.8594 5.85938C21.8698 5.86979 21.8802 5.89062 21.8906 5.92188C21.9115 5.95312 21.9323 6.01042 21.9531 6.09375C21.974 6.16667 22.0052 6.27083 22.0469 6.40625C22.0885 6.54167 22.1354 6.71875 22.1875 6.9375C22.1875 7.0625 22.2083 7.14583 22.25 7.1875C22.25 7.21875 22.276 7.26562 22.3281 7.32812C22.3802 7.39062 22.4375 7.45833 22.5 7.53125C22.5729 7.60417 22.6406 7.67188 22.7031 7.73438C22.7656 7.79688 22.8125 7.83854 22.8438 7.85938C22.8438 8.06771 22.8646 8.25521 22.9062 8.42188C22.9479 8.57812 22.9948 8.72917 23.0469 8.875C23.099 9.02083 23.1458 9.16146 23.1875 9.29688C23.2292 9.43229 23.25 9.56771 23.25 9.70312L23.1875 10.5938L23.375 11.8125C23.375 12.125 23.349 12.4271 23.2969 12.7188C23.2448 13.0104 23.1823 13.2969 23.1094 13.5781C23.0365 13.8594 22.9583 14.1458 22.875 14.4375C22.7917 14.7188 22.7188 15.0156 22.6562 15.3281V15.9219C22.6562 15.9323 22.6198 15.9844 22.5469 16.0781C22.4844 16.1615 22.4531 16.224 22.4531 16.2656C22.3594 16.4948 22.25 16.7188 22.125 16.9375C22.0104 17.1562 21.8906 17.3802 21.7656 17.6094C21.6406 17.8281 21.5156 18.0521 21.3906 18.2812C21.276 18.5104 21.1719 18.75 21.0781 19L19.75 20.1562L18.8594 20.6719C18.7865 20.6719 18.75 20.6979 18.75 20.75C18.5208 21.0625 18.2344 21.3438 17.8906 21.5938C17.5573 21.8438 17.1875 21.9688 16.7812 21.9688L15.9688 21.8906C15.875 21.8906 15.7604 21.9271 15.625 22C15.5 22.0625 15.3802 22.1146 15.2656 22.1562C15.2344 22.1562 15.1719 22.1667 15.0781 22.1875C14.9844 22.1979 14.8854 22.2135 14.7812 22.2344C14.6875 22.2448 14.5938 22.2604 14.5 22.2812C14.4167 22.2917 14.3646 22.2969 14.3438 22.2969C14.3125 22.2969 14.2292 22.3125 14.0938 22.3438C13.9583 22.375 13.8021 22.4115 13.625 22.4531C13.4479 22.4844 13.2708 22.5208 13.0938 22.5625C12.9167 22.6042 12.776 22.6354 12.6719 22.6562C12.5469 22.7604 12.3854 22.8125 12.1875 22.8125C12.1146 22.8125 12.0208 22.8021 11.9062 22.7812C11.7917 22.75 11.625 22.7083 11.4062 22.6562C11.3958 22.6562 11.3594 22.6667 11.2969 22.6875C11.2448 22.6979 11.1823 22.7135 11.1094 22.7344C11.0469 22.7552 10.9792 22.776 10.9062 22.7969C10.8333 22.8073 10.776 22.8125 10.7344 22.8125C10.6615 22.7917 10.5677 22.7604 10.4531 22.7188C10.3385 22.6771 10.2604 22.6562 10.2188 22.6562C9.75 22.7188 9.29167 22.7604 8.84375 22.7812C8.40625 22.8021 7.96875 22.8125 7.53125 22.8125C7.07292 22.8125 6.63021 22.8021 6.20312 22.7812C5.77604 22.7604 5.33854 22.7188 4.89062 22.6562C4.61979 22.6042 4.39062 22.5729 4.20312 22.5625C4.01562 22.5521 3.78646 22.5469 3.51562 22.5469L1.73438 22.8906C1.60938 22.8906 1.47917 22.875 1.34375 22.8438C1.21875 22.8125 1.10417 22.7656 1 22.7031C0.895833 22.6302 0.807292 22.5417 0.734375 22.4375C0.671875 22.3333 0.640625 22.2031 0.640625 22.0469ZM6.96875 18C6.96875 18.4896 7.125 18.9583 7.4375 19.4062C7.75 19.8542 8.13542 20.2448 8.59375 20.5781C9.0625 20.9115 9.5625 21.1771 10.0938 21.375C10.625 21.5729 11.1042 21.6719 11.5312 21.6719C12.0938 21.6719 12.599 21.6094 13.0469 21.4844C13.5052 21.3594 13.9688 21.1615 14.4375 20.8906C14.5729 20.8073 14.6927 20.7448 14.7969 20.7031C14.9115 20.651 15.0208 20.6042 15.125 20.5625C15.2292 20.5104 15.3333 20.4531 15.4375 20.3906C15.5521 20.3281 15.6771 20.25 15.8125 20.1562C16.1875 19.8854 16.5521 19.5938 16.9062 19.2812C17.2708 18.9688 17.6094 18.6146 17.9219 18.2188L18 17.8125C18.0417 17.6354 18.0938 17.4844 18.1562 17.3594C18.2188 17.224 18.2865 17.0938 18.3594 16.9688C18.4323 16.8438 18.5 16.7188 18.5625 16.5938C18.6354 16.4583 18.6979 16.3073 18.75 16.1406C18.75 16.1302 18.7552 16.0938 18.7656 16.0312C18.776 15.9688 18.7865 15.901 18.7969 15.8281C18.8073 15.7552 18.8177 15.6875 18.8281 15.625C18.849 15.5625 18.8594 15.526 18.8594 15.5156C18.9323 15.3281 19.0156 15.1406 19.1094 14.9531C19.2031 14.7552 19.2917 14.5573 19.375 14.3594C19.4583 14.1615 19.526 13.9583 19.5781 13.75C19.6406 13.5417 19.6719 13.3281 19.6719 13.1094C19.6198 12.9635 19.5885 12.8646 19.5781 12.8125C19.5677 12.75 19.5625 12.6927 19.5625 12.6406C19.5625 12.5885 19.5677 12.526 19.5781 12.4531C19.5885 12.3802 19.5938 12.3385 19.5938 12.3281C19.5729 12.2448 19.5469 12.0885 19.5156 11.8594C19.4844 11.6302 19.4531 11.3906 19.4219 11.1406C19.401 10.8802 19.3802 10.6354 19.3594 10.4062C19.3385 10.1667 19.3281 10.0052 19.3281 9.92188C19.2344 9.79688 19.1719 9.65104 19.1406 9.48438C19.1198 9.30729 19.1094 9.14583 19.1094 9C19.1094 8.86458 19.1146 8.75 19.125 8.65625C19.1354 8.55208 19.1406 8.45833 19.1406 8.375C18.9635 8.25 18.8385 8.09896 18.7656 7.92188C18.6927 7.73438 18.6354 7.54167 18.5938 7.34375C18.5521 7.14583 18.5052 6.94792 18.4531 6.75C18.4115 6.54167 18.3333 6.35417 18.2188 6.1875C18.2083 6.16667 18.1823 6.13542 18.1406 6.09375C18.099 6.04167 18.0521 5.98958 18 5.9375C17.9479 5.875 17.901 5.82292 17.8594 5.78125C17.8177 5.73958 17.7917 5.71354 17.7812 5.70312L17.5156 5.34375L16.6406 4.45312C16.401 4.22396 16.1771 3.97917 15.9688 3.71875C15.7708 3.45833 15.5365 3.23438 15.2656 3.04688C15.0677 2.91146 14.875 2.81771 14.6875 2.76562C14.5104 2.70312 14.3281 2.64583 14.1406 2.59375C13.9531 2.54167 13.7604 2.46875 13.5625 2.375C13.3646 2.28125 13.1562 2.13542 12.9375 1.9375C12.8125 1.83333 12.6094 1.75 12.3281 1.6875C12.0573 1.625 11.7656 1.57812 11.4531 1.54688C11.1406 1.50521 10.8385 1.47917 10.5469 1.46875C10.2656 1.45833 10.0573 1.45312 9.92188 1.45312C9.44271 1.45312 8.92188 1.48958 8.35938 1.5625C7.80729 1.625 7.30729 1.75 6.85938 1.9375C6.77604 1.97917 6.70312 2.07812 6.64062 2.23438C6.58854 2.39062 6.54167 2.57292 6.5 2.78125C6.46875 2.98958 6.44271 3.20833 6.42188 3.4375C6.41146 3.66667 6.40625 3.86979 6.40625 4.04688V4.51562C6.40625 4.89062 6.45312 5.25 6.54688 5.59375C6.65104 5.92708 6.70312 6.29688 6.70312 6.70312C6.70312 6.75521 6.6875 6.82812 6.65625 6.92188C6.63542 7.00521 6.61458 7.05729 6.59375 7.07812C6.5625 7.29688 6.54167 7.51562 6.53125 7.73438C6.52083 7.95312 6.51562 8.16667 6.51562 8.375C6.51562 8.55208 6.52083 8.73438 6.53125 8.92188C6.54167 9.09896 6.5625 9.27083 6.59375 9.4375C6.66667 9.64583 6.70833 9.82292 6.71875 9.96875C6.73958 10.1042 6.75 10.2396 6.75 10.375C6.75 10.5104 6.74479 10.6354 6.73438 10.75C6.73438 10.8646 6.72396 11.0104 6.70312 11.1875L6.73438 11.5625L6.70312 11.8438C6.65104 11.9375 6.61979 12.0208 6.60938 12.0938C6.59896 12.1562 6.59375 12.2396 6.59375 12.3438V12.5938C6.59375 13.0625 6.60938 13.5469 6.64062 14.0469C6.68229 14.5469 6.72917 15.0365 6.78125 15.5156C6.82292 15.7969 6.88542 16.0781 6.96875 16.3594C7.0625 16.6406 7.10938 16.9167 7.10938 17.1875L6.96875 18ZM25.7344 22.3281C25.7344 22.3073 25.7604 22.25 25.8125 22.1562C25.8646 22.0625 25.901 22 25.9219 21.9688C26.0677 21.7812 26.2656 21.651 26.5156 21.5781C26.7656 21.4948 27.0104 21.4531 27.25 21.4531C27.3229 21.4531 27.3854 21.4531 27.4375 21.4531C27.5 21.4531 27.5625 21.4635 27.625 21.4844C27.7396 21.401 27.8333 21.3021 27.9062 21.1875C27.9896 21.0729 28.0573 20.9479 28.1094 20.8125C28.099 20.7708 28.0885 20.7031 28.0781 20.6094C28.0677 20.5052 28.0625 20.3906 28.0625 20.2656C28.0625 20.151 28.0677 20.0417 28.0781 19.9375C28.0885 19.8229 28.099 19.7448 28.1094 19.7031C28.1302 19.5365 28.1823 19.3854 28.2656 19.25C28.349 19.1146 28.3906 18.9583 28.3906 18.7812V18.6406L28.2031 18.2656V17.8125C28.1719 17.5312 28.1302 17.25 28.0781 16.9688C28.026 16.6771 28 16.3802 28 16.0781L28.2031 14.9375L28.1719 14.3438C28.1719 14.3021 28.1719 14.2604 28.1719 14.2188C28.1719 14.1667 28.1823 14.1198 28.2031 14.0781C28.224 13.9115 28.2396 13.7448 28.25 13.5781C28.2708 13.4115 28.2812 13.2448 28.2812 13.0781C28.2812 12.9115 28.2708 12.75 28.25 12.5938C28.2396 12.4271 28.224 12.2552 28.2031 12.0781C28.1823 11.9635 28.1719 11.8438 28.1719 11.7188C28.1823 11.5833 28.1615 11.4583 28.1094 11.3438C28.026 11.1875 27.9271 11.0417 27.8125 10.9062C27.6979 10.7604 27.5729 10.6354 27.4375 10.5312C27.3125 10.4271 27.1771 10.3646 27.0312 10.3438C26.8854 10.3125 26.7344 10.2917 26.5781 10.2812C26.4323 10.2604 26.2917 10.224 26.1562 10.1719C26.0312 10.1198 25.9271 10.0156 25.8438 9.85938C25.8333 9.84896 25.8281 9.83333 25.8281 9.8125C25.8177 9.80208 25.8125 9.78125 25.8125 9.75C25.8125 9.65625 25.8385 9.58333 25.8906 9.53125C25.9531 9.46875 26.0208 9.42188 26.0938 9.39062C26.1771 9.35938 26.2656 9.33854 26.3594 9.32812C26.4531 9.31771 26.5312 9.30729 26.5938 9.29688H27.25C27.3958 9.27604 27.5469 9.23438 27.7031 9.17188C27.8698 9.10938 28.0365 9.07812 28.2031 9.07812C28.224 9.07812 28.2604 9.07812 28.3125 9.07812C28.3646 9.07812 28.3906 9.08854 28.3906 9.10938C28.401 9.10938 28.4583 9.14062 28.5625 9.20312C28.6667 9.26562 28.7344 9.29688 28.7656 9.29688H29.4062L30.4375 9.375C30.4583 9.39583 30.5 9.40625 30.5625 9.40625C30.6354 9.40625 30.6823 9.40625 30.7031 9.40625C30.8698 9.40625 31.0052 9.39062 31.1094 9.35938C31.224 9.31771 31.3698 9.29688 31.5469 9.29688C31.9219 9.29688 32.3073 9.3125 32.7031 9.34375C33.099 9.375 33.4896 9.44792 33.875 9.5625C34.125 9.63542 34.3646 9.69792 34.5938 9.75C34.8229 9.79167 35.0365 9.84896 35.2344 9.92188C35.4427 9.98438 35.6354 10.0781 35.8125 10.2031C36 10.3177 36.1719 10.4844 36.3281 10.7031C36.4531 10.8906 36.5521 11.0469 36.625 11.1719C36.7083 11.2865 36.7708 11.4062 36.8125 11.5312C36.8542 11.6458 36.8802 11.7812 36.8906 11.9375C36.901 12.0833 36.9062 12.276 36.9062 12.5156C36.9062 12.724 36.875 12.9271 36.8125 13.125C36.7604 13.3125 36.6562 13.4844 36.5 13.6406C36.4688 13.6719 36.4115 13.7344 36.3281 13.8281C36.2448 13.9219 36.151 14.0208 36.0469 14.125C35.9427 14.2188 35.8438 14.3125 35.75 14.4062C35.6667 14.5 35.6094 14.5625 35.5781 14.5938C35.5365 14.5938 35.4635 14.6042 35.3594 14.625C35.2656 14.6458 35.2135 14.6719 35.2031 14.7031C35.1823 14.7135 35.1302 14.7396 35.0469 14.7812C34.974 14.8125 34.8906 14.849 34.7969 14.8906C34.7135 14.9219 34.6354 14.9583 34.5625 15C34.4896 15.0312 34.4479 15.0469 34.4375 15.0469C34.3854 15.0677 34.3229 15.0833 34.25 15.0938C34.1875 15.1042 34.125 15.1198 34.0625 15.1406C34 15.151 33.9479 15.1771 33.9062 15.2188C33.8646 15.25 33.8438 15.3021 33.8438 15.375C33.8438 15.5104 33.8646 15.6562 33.9062 15.8125C33.9479 15.9583 34 16.1042 34.0625 16.25C34.1354 16.3854 34.2188 16.5156 34.3125 16.6406C34.4062 16.7656 34.5052 16.8646 34.6094 16.9375C34.6302 16.9583 34.6771 17 34.75 17.0625C34.8333 17.1146 34.8854 17.1406 34.9062 17.1406L35 17.25C35.0208 17.2604 35.0677 17.3229 35.1406 17.4375C35.224 17.5417 35.2812 17.6042 35.3125 17.625C35.3125 17.625 35.3333 17.651 35.375 17.7031C35.4167 17.7448 35.4635 17.7917 35.5156 17.8438C35.5677 17.8958 35.6146 17.9479 35.6562 18C35.7083 18.0521 35.7448 18.0885 35.7656 18.1094C35.776 18.1302 35.8073 18.1979 35.8594 18.3125C35.9115 18.4167 35.9688 18.5312 36.0312 18.6562C36.0938 18.7812 36.151 18.901 36.2031 19.0156C36.2656 19.1198 36.3073 19.1875 36.3281 19.2188C36.3385 19.2396 36.3698 19.2865 36.4219 19.3594C36.474 19.4323 36.5312 19.5156 36.5938 19.6094C36.6667 19.7031 36.7396 19.7969 36.8125 19.8906C36.8854 19.974 36.9427 20.0365 36.9844 20.0781C37.099 20.2135 37.2188 20.3281 37.3438 20.4219C37.4688 20.5156 37.599 20.6198 37.7344 20.7344L38.5 21.2969L39.4688 21.4062C39.5104 21.4167 39.5781 21.4427 39.6719 21.4844C39.7656 21.526 39.8542 21.5833 39.9375 21.6562C40.0312 21.7188 40.1094 21.7917 40.1719 21.875C40.2448 21.9479 40.2812 22.026 40.2812 22.1094C40.2812 22.151 40.2552 22.224 40.2031 22.3281C40.151 22.4219 40.0833 22.5208 40 22.625C39.9271 22.7188 39.8438 22.8073 39.75 22.8906C39.6667 22.9635 39.5885 23 39.5156 23H38.2188C38.1042 22.9062 37.9375 22.8385 37.7188 22.7969C37.5 22.7552 37.3177 22.724 37.1719 22.7031H36.0312C35.6146 22.5573 35.3073 22.3438 35.1094 22.0625C34.9115 21.7708 34.7448 21.4271 34.6094 21.0312C34.6094 21.0104 34.5885 20.9635 34.5469 20.8906C34.5156 20.8073 34.4427 20.6927 34.3281 20.5469L34.2188 20.0781C34.2188 20.0573 34.2083 20.026 34.1875 19.9844C34.1771 19.9427 34.1615 19.9115 34.1406 19.8906C34.0781 19.7969 33.9896 19.6719 33.875 19.5156C33.7708 19.349 33.6615 19.1823 33.5469 19.0156C33.4427 18.849 33.3438 18.7083 33.25 18.5938C33.1667 18.4688 33.1198 18.3958 33.1094 18.375L31.9844 17.1406C31.8385 16.9948 31.6719 16.875 31.4844 16.7812C31.2969 16.6875 31.1094 16.6406 30.9219 16.6406C30.8802 16.6406 30.8438 16.6458 30.8125 16.6562C30.7812 16.6667 30.7552 16.6979 30.7344 16.75C30.7344 16.7812 30.7396 16.8281 30.75 16.8906C30.7604 16.9427 30.7656 17.0052 30.7656 17.0781C30.7656 17.151 30.7604 17.2188 30.75 17.2812C30.7396 17.3438 30.7344 17.3854 30.7344 17.4062L30.6562 17.8125V18.9219C30.6562 18.9427 30.6406 19.0104 30.6094 19.125C30.5885 19.2396 30.5677 19.3229 30.5469 19.375C30.5469 19.5938 30.5729 19.776 30.625 19.9219C30.6875 20.0573 30.7604 20.2292 30.8438 20.4375L30.7344 20.9219C30.7344 21.1094 30.8021 21.224 30.9375 21.2656C31.0833 21.3073 31.2344 21.3385 31.3906 21.3594C31.5573 21.3802 31.7083 21.4323 31.8438 21.5156C31.9896 21.599 32.0625 21.7708 32.0625 22.0312C32.0625 22.1875 32.0156 22.3073 31.9219 22.3906C31.8385 22.4635 31.7344 22.5156 31.6094 22.5469C31.4844 22.5781 31.349 22.599 31.2031 22.6094C31.0677 22.6094 30.9479 22.6146 30.8438 22.625H29.0312C28.9792 22.6354 28.8802 22.651 28.7344 22.6719C28.599 22.6823 28.4479 22.6979 28.2812 22.7188C28.125 22.7292 27.974 22.7448 27.8281 22.7656C27.6823 22.7865 27.5781 22.8021 27.5156 22.8125C27.401 22.8958 27.3125 22.9479 27.25 22.9688C27.1979 22.9896 27.125 23 27.0312 23C26.8646 23 26.7292 22.9688 26.625 22.9062C26.5312 22.8438 26.4219 22.776 26.2969 22.7031C26.2865 22.7031 26.2396 22.6979 26.1562 22.6875C26.0729 22.6667 26.0208 22.6458 26 22.625C25.9583 22.5938 25.901 22.5417 25.8281 22.4688C25.7656 22.3854 25.7344 22.3385 25.7344 22.3281ZM30.3594 13.6406C30.3802 13.6719 30.3958 13.7396 30.4062 13.8438C30.4271 13.9479 30.4375 14.0104 30.4375 14.0312C30.4688 14.125 30.4896 14.2292 30.5 14.3438C30.5104 14.4583 30.526 14.5729 30.5469 14.6875C30.5677 14.8021 30.599 14.9062 30.6406 15C30.6823 15.0938 30.75 15.1719 30.8438 15.2344C31.0312 15.3802 31.1979 15.4844 31.3438 15.5469C31.5 15.599 31.7135 15.625 31.9844 15.625C32.0052 15.625 32.0469 15.6146 32.1094 15.5938C32.1823 15.5625 32.2292 15.5469 32.25 15.5469L33.1094 14.9688C33.1719 14.9271 33.25 14.8906 33.3438 14.8594C33.4375 14.8177 33.526 14.7708 33.6094 14.7188C33.6927 14.6667 33.7656 14.6094 33.8281 14.5469C33.901 14.4844 33.9427 14.4115 33.9531 14.3281C33.9531 14.3073 33.9583 14.2552 33.9688 14.1719C33.9792 14.0885 33.9896 14 34 13.9062C34.0104 13.8021 34.0208 13.6979 34.0312 13.5938C34.0417 13.4896 34.0521 13.4062 34.0625 13.3438V13.2344C34.0625 12.7656 33.974 12.3073 33.7969 11.8594C33.6302 11.4115 33.3646 11.026 33 10.7031C32.8854 10.5885 32.7656 10.4844 32.6406 10.3906C32.526 10.2865 32.3802 10.2344 32.2031 10.2344H31.9844L31.0312 10.3281C30.7604 10.5156 30.5938 10.7344 30.5312 10.9844C30.4688 11.224 30.4375 11.5 30.4375 11.8125V12.9688C30.4375 13 30.4271 13.0885 30.4062 13.2344C30.3958 13.3698 30.3802 13.474 30.3594 13.5469V13.6406ZM41.5469 22.3281C41.5469 22.1094 41.599 21.9375 41.7031 21.8125C41.8073 21.6771 41.9323 21.5677 42.0781 21.4844C42.2344 21.401 42.401 21.3229 42.5781 21.25C42.7552 21.1667 42.9167 21.0677 43.0625 20.9531C43.2188 20.8385 43.349 20.6875 43.4531 20.5C43.5573 20.3125 43.6094 20.0625 43.6094 19.75C43.6094 19.6667 43.6094 19.5885 43.6094 19.5156C43.6094 19.4323 43.599 19.349 43.5781 19.2656C43.5469 19.0781 43.5312 18.8802 43.5312 18.6719C43.5312 18.5052 43.5469 18.3333 43.5781 18.1562C43.599 18.0729 43.6094 18 43.6094 17.9375C43.6094 17.8646 43.6094 17.7865 43.6094 17.7031C43.6094 17.5885 43.6042 17.4844 43.5938 17.3906C43.5833 17.2969 43.5677 17.1927 43.5469 17.0781C43.5365 16.9635 43.526 16.8438 43.5156 16.7188C43.5052 16.5938 43.5 16.4688 43.5 16.3438C43.5 16.2292 43.5052 16.1198 43.5156 16.0156C43.526 15.901 43.5365 15.7865 43.5469 15.6719C43.5677 15.5573 43.5885 15.4479 43.6094 15.3438C43.6302 15.2292 43.6406 15.1146 43.6406 15C43.6406 14.8125 43.6198 14.625 43.5781 14.4375C43.5469 14.2396 43.5104 14.0469 43.4688 13.8594C43.4271 13.7031 43.3906 13.5417 43.3594 13.375C43.3385 13.1979 43.3281 13.026 43.3281 12.8594C43.3281 12.7969 43.3333 12.7396 43.3438 12.6875C43.3542 12.625 43.3698 12.5677 43.3906 12.5156C43.4219 12.4115 43.4375 12.3021 43.4375 12.1875C43.4375 12.1771 43.4323 12.1719 43.4219 12.1719C43.4219 12.1615 43.4219 12.1458 43.4219 12.125V12.0781C43.4115 12.0469 43.3906 12.0052 43.3594 11.9531C43.3385 11.8906 43.3125 11.8333 43.2812 11.7812C43.25 11.7188 43.2188 11.6615 43.1875 11.6094C43.1667 11.5573 43.151 11.526 43.1406 11.5156C43.099 11.474 43.026 11.401 42.9219 11.2969C42.8177 11.1823 42.7083 11.0677 42.5938 10.9531C42.4792 10.8281 42.3646 10.7135 42.25 10.6094C42.1458 10.5052 42.0729 10.4375 42.0312 10.4062C42.0208 10.3854 42 10.3542 41.9688 10.3125C41.9479 10.2708 41.9375 10.2396 41.9375 10.2188C41.9375 10.0104 42.0156 9.81771 42.1719 9.64062C42.3281 9.46354 42.4896 9.34896 42.6562 9.29688C42.7292 9.26562 42.8229 9.22917 42.9375 9.1875C43.0625 9.14583 43.1823 9.10938 43.2969 9.07812C43.4219 9.03646 43.5312 9 43.625 8.96875C43.7188 8.9375 43.776 8.92188 43.7969 8.92188C43.8177 8.92188 43.8698 8.91667 43.9531 8.90625C44.0365 8.89583 44.099 8.89062 44.1406 8.89062C44.2865 8.89062 44.4219 8.90625 44.5469 8.9375C44.6823 8.96875 44.8177 9 44.9531 9.03125C45.0365 9.04167 45.125 9.05729 45.2188 9.07812C45.3125 9.09896 45.4062 9.10938 45.5 9.10938C45.5938 9.10938 45.6771 9.10417 45.75 9.09375C45.8229 9.08333 45.901 9.06771 45.9844 9.04688C46.0573 9.03646 46.1302 9.02604 46.2031 9.01562C46.276 9.00521 46.3542 9 46.4375 9C46.6354 9 46.8177 9.03125 46.9844 9.09375C47.151 9.15625 47.3229 9.1875 47.5 9.1875C47.5104 9.1875 47.5469 9.19271 47.6094 9.20312C47.6719 9.20312 47.7396 9.20312 47.8125 9.20312C47.8958 9.20312 47.974 9.20833 48.0469 9.21875C48.1302 9.21875 48.1979 9.21875 48.25 9.21875C48.75 9.21875 49.2448 9.1875 49.7344 9.125C50.2344 9.0625 50.7344 9.02083 51.2344 9C51.2865 8.95833 51.3281 8.9375 51.3594 8.9375C51.401 8.92708 51.4583 8.92188 51.5312 8.92188C51.8021 9.03646 52.0052 9.1875 52.1406 9.375C52.276 9.5625 52.375 9.78125 52.4375 10.0312C52.4375 10.0521 52.4375 10.0938 52.4375 10.1562C52.4479 10.2188 52.4583 10.2865 52.4688 10.3594C52.4792 10.4323 52.4896 10.5 52.5 10.5625C52.5104 10.625 52.5208 10.6615 52.5312 10.6719C52.5312 10.6823 52.5365 10.7031 52.5469 10.7344C52.5573 10.7552 52.5677 10.8125 52.5781 10.9062C52.5885 10.9896 52.599 11.1094 52.6094 11.2656C52.6198 11.4219 52.6302 11.6302 52.6406 11.8906C52.6406 12.026 52.5677 12.1354 52.4219 12.2188C52.2865 12.3021 52.1615 12.3438 52.0469 12.3438C51.9323 12.3438 51.8385 12.3333 51.7656 12.3125C51.6927 12.2917 51.625 12.2604 51.5625 12.2188C51.5 12.1771 51.4375 12.1302 51.375 12.0781C51.3125 12.0156 51.2344 11.9531 51.1406 11.8906C51.1302 11.8906 51.099 11.8802 51.0469 11.8594C51.0052 11.8281 50.974 11.8021 50.9531 11.7812C50.9427 11.7812 50.8958 11.776 50.8125 11.7656C50.7292 11.7448 50.6771 11.724 50.6562 11.7031C50.4479 11.6198 50.2812 11.5052 50.1562 11.3594C50.0417 11.2031 49.901 11.0365 49.7344 10.8594C49.6823 10.8594 49.599 10.8594 49.4844 10.8594C49.3802 10.849 49.2604 10.8385 49.125 10.8281C49 10.8177 48.8802 10.8073 48.7656 10.7969C48.651 10.7865 48.5729 10.7708 48.5312 10.75C48.5104 10.75 48.4479 10.724 48.3438 10.6719C48.2396 10.6198 48.1719 10.5938 48.1406 10.5938C48.1302 10.5729 48.0677 10.5625 47.9531 10.5625C47.849 10.5625 47.7708 10.5625 47.7188 10.5625C47.5104 10.5625 47.3333 10.599 47.1875 10.6719C47.0417 10.7448 46.9167 10.8438 46.8125 10.9688C46.7083 11.0938 46.6198 11.2396 46.5469 11.4062C46.4844 11.5625 46.4323 11.724 46.3906 11.8906C46.3906 11.9115 46.375 11.974 46.3438 12.0781C46.3229 12.1823 46.3021 12.2552 46.2812 12.2969C46.2812 12.3177 46.2865 12.349 46.2969 12.3906C46.3177 12.4219 46.349 12.5365 46.3906 12.7344C46.3906 13.0573 46.3438 13.3802 46.25 13.7031C46.1667 14.0156 46.125 14.3385 46.125 14.6719C46.125 14.7656 46.1562 14.8385 46.2188 14.8906C46.2812 14.9427 46.3542 14.9792 46.4375 15C46.5312 15.0208 46.625 15.0365 46.7188 15.0469C46.8229 15.0469 46.9115 15.0469 46.9844 15.0469H47.3438C47.3958 15.0469 47.4635 15.0417 47.5469 15.0312C47.6406 15.0208 47.7292 15.0104 47.8125 15C47.8958 14.9896 47.9688 14.9792 48.0312 14.9688C48.1042 14.9583 48.1406 14.9479 48.1406 14.9375C48.151 14.9375 48.1823 14.9219 48.2344 14.8906C48.2865 14.849 48.3385 14.8073 48.3906 14.7656C48.4531 14.7135 48.5156 14.6615 48.5781 14.6094C48.6406 14.5573 48.6875 14.5156 48.7188 14.4844C48.75 14.4531 48.7865 14.4167 48.8281 14.375C48.8802 14.3333 48.9271 14.2917 48.9688 14.25C49.0208 14.1979 49.0625 14.151 49.0938 14.1094C49.1354 14.0677 49.1615 14.0417 49.1719 14.0312C49.2656 13.9062 49.3125 13.7708 49.3125 13.625C49.3229 13.4792 49.3333 13.349 49.3438 13.2344C49.3646 13.1094 49.4115 13.0104 49.4844 12.9375C49.5573 12.8542 49.7083 12.8125 49.9375 12.8125C50.2396 12.8125 50.4531 12.9062 50.5781 13.0938C50.7031 13.2812 50.7656 13.5208 50.7656 13.8125C50.7656 13.9896 50.7448 14.1302 50.7031 14.2344C50.6615 14.3385 50.6146 14.4323 50.5625 14.5156C50.5208 14.599 50.4792 14.6875 50.4375 14.7812C50.4062 14.875 50.3906 14.9948 50.3906 15.1406C50.3906 15.276 50.4167 15.3906 50.4688 15.4844C50.5208 15.5677 50.5573 15.6667 50.5781 15.7812L50.6562 16.8125C50.6667 16.8229 50.6771 16.8542 50.6875 16.9062C50.7083 16.9583 50.7292 17.0208 50.75 17.0938C50.7708 17.1562 50.7917 17.224 50.8125 17.2969C50.8333 17.3594 50.8438 17.4115 50.8438 17.4531C50.8333 17.5052 50.8229 17.5677 50.8125 17.6406C50.8125 17.7135 50.8073 17.7865 50.7969 17.8594C50.7865 17.9427 50.776 18.026 50.7656 18.1094C50.7552 18.1406 50.7292 18.1823 50.6875 18.2344C50.6458 18.276 50.5938 18.3229 50.5312 18.375C50.4792 18.4167 50.4219 18.4583 50.3594 18.5C50.2969 18.5417 50.2448 18.5625 50.2031 18.5625C50.1615 18.5625 50.1094 18.5625 50.0469 18.5625C49.9844 18.5521 49.9479 18.526 49.9375 18.4844C49.9167 18.4635 49.8958 18.401 49.875 18.2969C49.8542 18.1927 49.8438 18.1302 49.8438 18.1094C49.7917 18.0156 49.724 17.901 49.6406 17.7656C49.5573 17.6302 49.4635 17.4896 49.3594 17.3438C49.2552 17.1875 49.1406 17.0365 49.0156 16.8906C48.8906 16.7448 48.7656 16.6198 48.6406 16.5156C48.526 16.4323 48.401 16.3854 48.2656 16.375C48.1406 16.3542 48.0365 16.3438 47.9531 16.3438L47.3438 16.5469C47.3229 16.5469 47.2708 16.5312 47.1875 16.5C47.1146 16.4688 47.0625 16.4531 47.0312 16.4531H46.9688C46.9479 16.4531 46.9323 16.4531 46.9219 16.4531C46.9115 16.4427 46.8958 16.4375 46.875 16.4375C46.8229 16.4375 46.7552 16.4688 46.6719 16.5312C46.5885 16.5938 46.5052 16.6719 46.4219 16.7656C46.349 16.849 46.2812 16.9375 46.2188 17.0312C46.1562 17.125 46.125 17.2031 46.125 17.2656C46.125 17.2865 46.1198 17.3542 46.1094 17.4688C46.099 17.5729 46.0938 17.6615 46.0938 17.7344C46.0938 17.7552 46.0938 17.7865 46.0938 17.8281C46.0938 17.8698 46.099 17.9115 46.1094 17.9531C46.1094 17.9948 46.1146 18.0469 46.125 18.1094C46.125 18.1927 46.1406 18.3438 46.1719 18.5625C46.2031 18.7708 46.2396 18.9948 46.2812 19.2344C46.3229 19.4635 46.3594 19.6875 46.3906 19.9062C46.4323 20.1146 46.4583 20.2604 46.4688 20.3438C46.6146 20.5 46.7188 20.6458 46.7812 20.7812C46.8438 20.9062 46.901 21.0208 46.9531 21.125C47.0156 21.2292 47.099 21.3125 47.2031 21.375C47.3177 21.4271 47.4948 21.4531 47.7344 21.4531C47.9948 21.4531 48.25 21.4271 48.5 21.375C48.7604 21.3229 49.0208 21.2865 49.2812 21.2656H49.6562C49.6771 21.2656 49.7344 21.2396 49.8281 21.1875C49.9323 21.1354 49.9948 21.099 50.0156 21.0781L50.3906 21C50.4323 20.9792 50.4844 20.9635 50.5469 20.9531C50.6198 20.9323 50.6562 20.9115 50.6562 20.8906C50.6875 20.8698 50.7656 20.8125 50.8906 20.7188C51.0156 20.6146 51.099 20.5573 51.1406 20.5469C51.2448 20.4635 51.3542 20.4167 51.4688 20.4062C51.5833 20.3854 51.6823 20.3333 51.7656 20.25C51.8906 20.1458 52.0104 20.0312 52.125 19.9062C52.25 19.7708 52.375 19.6458 52.5 19.5312C52.625 19.4167 52.7604 19.3229 52.9062 19.25C53.0625 19.1771 53.2344 19.1406 53.4219 19.1406H53.75C53.8333 19.1927 53.8854 19.2656 53.9062 19.3594C53.9271 19.4531 53.9375 19.5469 53.9375 19.6406C53.9375 20.1198 53.8073 20.5729 53.5469 21C53.5469 21.0104 53.526 21.0417 53.4844 21.0938C53.4531 21.1458 53.4115 21.2031 53.3594 21.2656C53.3177 21.3281 53.276 21.3906 53.2344 21.4531C53.2031 21.5052 53.1823 21.5417 53.1719 21.5625C53.1615 21.5729 53.151 21.6042 53.1406 21.6562C53.1302 21.7083 53.1198 21.7656 53.1094 21.8281C53.1094 21.8906 53.1042 21.9531 53.0938 22.0156C53.0833 22.0677 53.0729 22.099 53.0625 22.1094C53.0625 22.1302 53.0521 22.1615 53.0312 22.2031C53.0208 22.2448 53.0052 22.276 52.9844 22.2969C52.9635 22.3281 52.9219 22.375 52.8594 22.4375C52.8073 22.5 52.7448 22.5677 52.6719 22.6406C52.599 22.7031 52.5312 22.7656 52.4688 22.8281C52.4062 22.8906 52.3646 22.9323 52.3438 22.9531H52.2031C52.0156 22.9531 51.8281 22.9688 51.6406 23C51.4219 23.0312 51.2031 23.0469 50.9844 23.0469C50.7656 23.0469 50.5677 23.0156 50.3906 22.9531C50.2135 22.8802 49.9948 22.8438 49.7344 22.8438C49.6823 22.8438 49.599 22.849 49.4844 22.8594C49.3698 22.8594 49.3021 22.8594 49.2812 22.8594L48.5469 22.9688C48.3177 23.0104 48.0833 23.0312 47.8438 23.0312C47.6042 23.0417 47.3646 23.0469 47.125 23.0469H45.9844C45.8177 23.0469 45.6719 23.0312 45.5469 23C45.4219 22.9688 45.2865 22.9531 45.1406 22.9531C45.0365 22.9531 44.9323 22.9844 44.8281 23.0469C44.7344 23.1094 44.6406 23.1406 44.5469 23.1406L43.6875 22.9531C43.6771 22.9531 43.6354 22.9635 43.5625 22.9844C43.4896 22.9948 43.4062 23.0104 43.3125 23.0312C43.2188 23.0521 43.1198 23.0729 43.0156 23.0938C42.9115 23.1146 42.8281 23.1302 42.7656 23.1406C42.6406 23.1406 42.5052 23.125 42.3594 23.0938C42.224 23.0625 42.0938 23.0156 41.9688 22.9531C41.8542 22.8802 41.7552 22.7969 41.6719 22.7031C41.5885 22.599 41.5469 22.474 41.5469 22.3281ZM64.1094 20.9531C64.099 20.9427 64.0833 20.9115 64.0625 20.8594C64.0417 20.7969 64.0208 20.7344 64 20.6719C63.9792 20.6094 63.9583 20.5521 63.9375 20.5C63.9271 20.4479 63.9219 20.4167 63.9219 20.4062C63.901 20.375 63.8906 20.3333 63.8906 20.2812C63.8906 20.2188 63.8906 20.151 63.8906 20.0781C63.8906 20.0156 63.8906 19.9531 63.8906 19.8906C63.8906 19.8281 63.901 19.7812 63.9219 19.75C63.776 19.6146 63.6875 19.4948 63.6562 19.3906C63.6354 19.276 63.625 19.1458 63.625 19V18.6719C63.625 18.651 63.6146 18.6198 63.5938 18.5781C63.5729 18.5365 63.5573 18.5052 63.5469 18.4844C63.5156 18.4635 63.4531 18.4062 63.3594 18.3125C63.276 18.2188 63.2083 18.1615 63.1562 18.1406C63.0729 18.0677 62.9688 18.0208 62.8438 18C62.7188 17.9792 62.6094 17.9323 62.5156 17.8594C62.4948 17.8594 62.4427 17.8594 62.3594 17.8594C62.2865 17.8594 62.2396 17.8542 62.2188 17.8438C62.1458 17.8646 62.0573 17.901 61.9531 17.9531C61.8594 17.9948 61.8021 18.026 61.7812 18.0469L61.625 18.1406L60.8594 18.0469H60.4844C60.349 18.0469 60.2083 18.0729 60.0625 18.125C59.9167 18.1771 59.7708 18.2448 59.625 18.3281C59.4896 18.4115 59.3594 18.5104 59.2344 18.625C59.1198 18.7292 59.026 18.8385 58.9531 18.9531C58.9323 18.974 58.9115 19.0365 58.8906 19.1406C58.8698 19.2448 58.8594 19.3073 58.8594 19.3281C58.8385 19.3906 58.8073 19.4583 58.7656 19.5312C58.724 19.5938 58.7031 19.6667 58.7031 19.75L58.6719 20.1406L58.5625 20.5469L58.7031 21.2656C58.7031 21.2865 58.7188 21.3125 58.75 21.3438C58.7812 21.375 58.8177 21.4115 58.8594 21.4531C58.974 21.5677 59.0312 21.6354 59.0312 21.6562C59.0312 21.6667 59.0469 21.6771 59.0781 21.6875C59.1198 21.6979 59.1615 21.7083 59.2031 21.7188C59.2448 21.7292 59.2865 21.7396 59.3281 21.75C59.3698 21.75 59.3958 21.75 59.4062 21.75C59.4688 21.75 59.5521 21.7552 59.6562 21.7656C59.7604 21.776 59.8594 21.8021 59.9531 21.8438C60.0573 21.8854 60.1458 21.9427 60.2188 22.0156C60.2917 22.0781 60.3281 22.1719 60.3281 22.2969C60.3281 22.4219 60.2812 22.5417 60.1875 22.6562C60.0938 22.7708 59.9792 22.849 59.8438 22.8906C59.7917 22.901 59.7083 22.9167 59.5938 22.9375C59.4792 22.9583 59.3542 22.9844 59.2188 23.0156C59.0833 23.0469 58.9531 23.0729 58.8281 23.0938C58.7031 23.125 58.6146 23.1458 58.5625 23.1562L58.1875 23L55.9219 23.1562C55.7865 23.1354 55.6667 23.1146 55.5625 23.0938C55.4688 23.0729 55.3802 23.0417 55.2969 23C55.224 22.9583 55.1562 22.901 55.0938 22.8281C55.0417 22.7552 54.9844 22.651 54.9219 22.5156C54.9219 22.3281 54.974 22.1771 55.0781 22.0625C55.1927 21.9375 55.3281 21.8333 55.4844 21.75C55.6406 21.6667 55.8021 21.5938 55.9688 21.5312C56.1354 21.4583 56.2708 21.3906 56.375 21.3281C56.375 21.3073 56.3854 21.2917 56.4062 21.2812C56.4375 21.2604 56.4635 21.2396 56.4844 21.2188C56.5781 21.125 56.6771 21.0156 56.7812 20.8906C56.8958 20.7656 56.9792 20.6302 57.0312 20.4844C57.0417 20.474 57.0573 20.4427 57.0781 20.3906C57.099 20.3385 57.1198 20.2812 57.1406 20.2188C57.1615 20.1562 57.1771 20.099 57.1875 20.0469C57.2083 19.9948 57.2188 19.9635 57.2188 19.9531C57.3333 19.651 57.4688 19.3802 57.625 19.1406C57.7812 18.8906 57.9167 18.6458 58.0312 18.4062C58.0417 18.3958 58.0573 18.3646 58.0781 18.3125C58.099 18.2604 58.1198 18.2031 58.1406 18.1406C58.1615 18.0781 58.1771 18.0208 58.1875 17.9688C58.2083 17.9167 58.2188 17.8802 58.2188 17.8594L58.4844 16.75C58.4948 16.7396 58.5104 16.7135 58.5312 16.6719C58.5521 16.6198 58.5729 16.5677 58.5938 16.5156C58.6146 16.4635 58.6302 16.4167 58.6406 16.375C58.6615 16.3333 58.6719 16.3073 58.6719 16.2969L58.9531 15.375C59.0156 15.1458 59.0938 14.9583 59.1875 14.8125C59.2917 14.6562 59.3906 14.474 59.4844 14.2656L59.5625 13.8125C59.5833 13.7708 59.6042 13.7031 59.625 13.6094C59.6458 13.5052 59.6615 13.4479 59.6719 13.4375L59.8438 12.8906C59.8438 12.849 59.849 12.7917 59.8594 12.7188C59.8802 12.6458 59.8958 12.5677 59.9062 12.4844C59.9167 12.401 59.9271 12.3229 59.9375 12.25C59.9479 12.1667 59.9531 12.1094 59.9531 12.0781V10.8906C59.9531 10.8594 59.9635 10.8125 59.9844 10.75C60.0156 10.6875 60.0469 10.625 60.0781 10.5625C60.1094 10.4896 60.1458 10.4271 60.1875 10.375C60.2292 10.3125 60.276 10.2656 60.3281 10.2344L60.8594 10.0469C60.8906 10.0469 60.9375 10.0104 61 9.9375C61.0729 9.85417 61.1198 9.80208 61.1406 9.78125L61.6719 9.53125L62.0781 9.14062C62.2552 9.14062 62.401 9.21354 62.5156 9.35938C62.6406 9.49479 62.7396 9.63542 62.8125 9.78125C62.8229 9.83333 62.8438 9.91667 62.875 10.0312C62.9167 10.1458 62.9531 10.2708 62.9844 10.4062C63.026 10.5312 63.0625 10.651 63.0938 10.7656C63.1354 10.8802 63.1562 10.9583 63.1562 11V11.4531C63.1771 11.474 63.1979 11.5052 63.2188 11.5469C63.2396 11.5885 63.2552 11.6198 63.2656 11.6406C63.4115 11.8802 63.5365 12.151 63.6406 12.4531C63.7448 12.7448 63.8385 13.0417 63.9219 13.3438C63.9427 13.5521 63.9531 13.6719 63.9531 13.7031C63.9635 13.7344 63.9792 13.75 64 13.75C64.0938 13.75 64.1615 13.7969 64.2031 13.8906C64.2552 13.974 64.3073 14.0729 64.3594 14.1875L64.5469 14.7031C64.5469 14.7344 64.5625 14.7865 64.5938 14.8594C64.625 14.9219 64.6615 14.9948 64.7031 15.0781C64.7448 15.1615 64.7812 15.2448 64.8125 15.3281C64.8542 15.401 64.8802 15.4531 64.8906 15.4844C64.901 15.4948 64.9375 15.5417 65 15.625C65.0312 15.6667 65.0573 15.7031 65.0781 15.7344C65.0885 15.7552 65.1094 15.8125 65.1406 15.9062C65.1719 15.9896 65.2031 16.0833 65.2344 16.1875C65.2656 16.2917 65.2917 16.3906 65.3125 16.4844C65.3438 16.5677 65.3594 16.6198 65.3594 16.6406C65.4115 16.849 65.4688 17.0625 65.5312 17.2812C65.6042 17.4896 65.6979 17.6823 65.8125 17.8594C65.8125 17.8906 65.8542 17.9583 65.9375 18.0625C66.0208 18.1562 66.0677 18.2188 66.0781 18.25L66.1719 18.6719C66.2135 18.849 66.2552 18.9948 66.2969 19.1094C66.3385 19.224 66.3646 19.3385 66.375 19.4531C66.375 19.4844 66.3854 19.5469 66.4062 19.6406C66.4375 19.7344 66.4688 19.8385 66.5 19.9531C66.5312 20.0573 66.5573 20.1562 66.5781 20.25C66.6094 20.3333 66.625 20.3854 66.625 20.4062C66.6458 20.5208 66.6979 20.6458 66.7812 20.7812C66.8646 20.9167 66.9479 21 67.0312 21.0312C67.0417 21.0417 67.0781 21.0625 67.1406 21.0938C67.2135 21.125 67.2865 21.1615 67.3594 21.2031C67.4427 21.2344 67.5156 21.2656 67.5781 21.2969C67.651 21.3281 67.6927 21.3438 67.7031 21.3438C67.8281 21.4271 67.9427 21.4896 68.0469 21.5312C68.1615 21.5625 68.2552 21.6042 68.3281 21.6562C68.401 21.6979 68.4583 21.7604 68.5 21.8438C68.5417 21.9271 68.5625 22.0521 68.5625 22.2188C68.5625 22.375 68.4792 22.5104 68.3125 22.625C68.1458 22.7292 67.9479 22.8177 67.7188 22.8906C67.5 22.9531 67.276 23 67.0469 23.0312C66.8281 23.0625 66.6667 23.0781 66.5625 23.0781C66.2917 23.0781 66.0417 23.0417 65.8125 22.9688C65.5938 22.8958 65.3333 22.8594 65.0312 22.8594L63.8125 23C63.7083 23 63.5781 22.9948 63.4219 22.9844C63.2656 22.9635 63.1094 22.9323 62.9531 22.8906C62.8073 22.8385 62.6771 22.7708 62.5625 22.6875C62.4583 22.6042 62.4062 22.4896 62.4062 22.3438C62.4062 22.1458 62.4948 22.0104 62.6719 21.9375C62.849 21.8542 63.0417 21.7812 63.25 21.7188C63.4688 21.6562 63.6667 21.5833 63.8438 21.5C64.0208 21.4062 64.1094 21.25 64.1094 21.0312V20.9531ZM61.1406 16.9219C61.151 16.9219 61.1875 16.9323 61.25 16.9531C61.3229 16.9635 61.401 16.9792 61.4844 17C61.5781 17.0208 61.6667 17.0417 61.75 17.0625C61.8438 17.0833 61.9167 17.099 61.9688 17.1094L62.3281 17.1875C62.3385 17.1771 62.3802 17.1667 62.4531 17.1562C62.526 17.1458 62.6042 17.1302 62.6875 17.1094L63 17.0469L62.7031 15.8594C62.6823 15.7656 62.6615 15.6406 62.6406 15.4844C62.6302 15.3177 62.625 15.2083 62.625 15.1562C62.625 15.0208 62.6094 14.9062 62.5781 14.8125C62.5573 14.7083 62.526 14.6094 62.4844 14.5156C62.4427 14.4219 62.3958 14.3281 62.3438 14.2344C62.2917 14.1302 62.2396 14.0156 62.1875 13.8906C62.1667 13.8177 62.0938 13.7344 61.9688 13.6406C61.8542 13.5469 61.7552 13.4583 61.6719 13.375C61.6406 13.3438 61.5885 13.3281 61.5156 13.3281C61.4219 13.3281 61.3281 13.3646 61.2344 13.4375C61.1406 13.5104 61.0365 13.5469 60.9219 13.5469C60.8281 13.5469 60.7292 13.625 60.625 13.7812C60.5312 13.9375 60.4375 14.1198 60.3438 14.3281C60.2604 14.526 60.1875 14.7292 60.125 14.9375C60.0729 15.1354 60.0417 15.2812 60.0312 15.375V16.5625C60.0521 16.5938 60.0833 16.6562 60.125 16.75C60.1667 16.8438 60.1979 16.901 60.2188 16.9219C60.2396 16.9427 60.2604 16.9688 60.2812 17C60.3021 17.0208 60.3333 17.0312 60.375 17.0312C60.3958 17.0312 60.4427 17.026 60.5156 17.0156C60.599 17.0052 60.6823 16.9948 60.7656 16.9844C60.849 16.9635 60.9271 16.9479 61 16.9375C61.0729 16.9271 61.1198 16.9219 61.1406 16.9219ZM85.6719 22.8594C85.349 22.8594 85.0312 22.8906 84.7188 22.9531C84.4167 23.0052 84.0938 23.0312 83.75 23.0312C83.7292 23.0312 83.6875 23.0312 83.625 23.0312C83.5625 23.0312 83.4948 23.0312 83.4219 23.0312C83.3594 23.0312 83.2969 23.026 83.2344 23.0156C83.1719 23.0156 83.1302 23.0104 83.1094 23C83.0781 22.9896 83.0312 22.9583 82.9688 22.9062C82.9167 22.8542 82.8542 22.7969 82.7812 22.7344C82.7188 22.6615 82.6615 22.599 82.6094 22.5469C82.5573 22.4844 82.526 22.4375 82.5156 22.4062C82.474 22.3854 82.4375 22.3385 82.4062 22.2656C82.375 22.1823 82.3594 22.1302 82.3594 22.1094C82.3594 21.9635 82.4062 21.849 82.5 21.7656C82.6042 21.6823 82.7292 21.6146 82.875 21.5625C83.0208 21.5104 83.1823 21.4688 83.3594 21.4375C83.5469 21.3958 83.7188 21.3438 83.875 21.2812C84.0417 21.2188 84.1875 21.1354 84.3125 21.0312C84.4479 20.9271 84.5417 20.7812 84.5938 20.5938V18.9531C84.6146 18.9323 84.6458 18.8594 84.6875 18.7344C84.7396 18.6094 84.7656 18.5365 84.7656 18.5156V18.3438V18.1875C84.7552 18.1667 84.7344 18.1302 84.7031 18.0781C84.6719 18.0156 84.6354 17.9531 84.5938 17.8906C84.5625 17.8177 84.5312 17.7552 84.5 17.7031C84.4688 17.6406 84.4531 17.6042 84.4531 17.5938C84.4531 17.5625 84.4427 17.5 84.4219 17.4062C84.4115 17.3125 84.3958 17.2135 84.375 17.1094C84.3646 16.9948 84.349 16.8854 84.3281 16.7812C84.3177 16.6771 84.3073 16.599 84.2969 16.5469V15.6719V15.3438C84.2969 15.3333 84.2865 15.2969 84.2656 15.2344C84.2552 15.1719 84.2396 15.1094 84.2188 15.0469C84.2083 14.974 84.1927 14.9062 84.1719 14.8438C84.1615 14.7812 84.1562 14.7448 84.1562 14.7344C84.1354 14.6615 84.1094 14.5417 84.0781 14.375C84.0469 14.2083 84.0156 14.0312 83.9844 13.8438C83.9531 13.6458 83.9271 13.4635 83.9062 13.2969C83.8854 13.1302 83.8698 13.0104 83.8594 12.9375C83.849 12.9271 83.8229 12.9219 83.7812 12.9219C83.75 12.9219 83.724 12.9219 83.7031 12.9219C83.5885 12.9219 83.4844 12.9635 83.3906 13.0469C83.2969 13.1302 83.2135 13.2292 83.1406 13.3438C83.0677 13.4583 83 13.5781 82.9375 13.7031C82.8854 13.8177 82.8438 13.9167 82.8125 14C82.7812 14.0625 82.7188 14.2083 82.625 14.4375C82.5417 14.6667 82.4479 14.9167 82.3438 15.1875C82.2396 15.4583 82.1406 15.7135 82.0469 15.9531C81.9635 16.1927 81.9115 16.3438 81.8906 16.4062C81.849 16.5208 81.7969 16.6198 81.7344 16.7031C81.6719 16.776 81.6042 16.849 81.5312 16.9219C81.4583 16.9948 81.3854 17.0729 81.3125 17.1562C81.2396 17.2396 81.1823 17.3385 81.1406 17.4531C81.1094 17.5052 81.0781 17.5885 81.0469 17.7031C81.0156 17.8073 81 17.8698 81 17.8906C80.9896 17.9219 80.974 17.9844 80.9531 18.0781C80.9427 18.1615 80.9271 18.2552 80.9062 18.3594C80.8958 18.4531 80.8802 18.5469 80.8594 18.6406C80.849 18.724 80.8438 18.7812 80.8438 18.8125C80.8438 18.8333 80.8281 18.875 80.7969 18.9375C80.7656 18.9896 80.7292 19.0521 80.6875 19.125C80.6562 19.1875 80.625 19.25 80.5938 19.3125C80.5625 19.3646 80.5469 19.3958 80.5469 19.4062V20.1562C80.526 20.2917 80.4896 20.5104 80.4375 20.8125C80.3854 21.1042 80.3125 21.4062 80.2188 21.7188C80.125 22.0208 80.0052 22.2865 79.8594 22.5156C79.724 22.7448 79.5573 22.8594 79.3594 22.8594H79.1875C78.9167 22.651 78.6823 22.4271 78.4844 22.1875C78.2865 21.9375 78.125 21.6562 78 21.3438C77.9792 21.3333 77.9479 21.25 77.9062 21.0938C77.875 20.9375 77.8542 20.8229 77.8438 20.75C77.8229 20.7188 77.8021 20.6615 77.7812 20.5781C77.7708 20.4948 77.7552 20.4062 77.7344 20.3125C77.724 20.2083 77.7135 20.1146 77.7031 20.0312C77.6927 19.9375 77.6823 19.8802 77.6719 19.8594C77.6719 19.8073 77.651 19.724 77.6094 19.6094C77.5781 19.4948 77.5573 19.4271 77.5469 19.4062C77.5156 19.3854 77.4583 19.3385 77.375 19.2656C77.2917 19.1823 77.25 19.1302 77.25 19.1094C77.2292 19.0781 77.2083 19.0208 77.1875 18.9375C77.1771 18.8438 77.1615 18.75 77.1406 18.6562C77.1302 18.5521 77.1198 18.4583 77.1094 18.375C77.099 18.2812 77.0885 18.2188 77.0781 18.1875C77.0781 18.1771 77.0625 18.1406 77.0312 18.0781C77.0104 18.0156 76.9844 17.9479 76.9531 17.875C76.9219 17.7917 76.8854 17.7135 76.8438 17.6406C76.8125 17.5573 76.7917 17.4948 76.7812 17.4531C76.7604 17.4323 76.7344 17.3802 76.7031 17.2969C76.6719 17.2031 76.6562 17.151 76.6562 17.1406C76.6354 17.1302 76.599 17.099 76.5469 17.0469C76.4948 16.9844 76.4427 16.9219 76.3906 16.8594C76.349 16.7865 76.3073 16.7188 76.2656 16.6562C76.224 16.5938 76.1979 16.5573 76.1875 16.5469C76.1667 16.5156 76.1406 16.4479 76.1094 16.3438C76.0781 16.2396 76.0469 16.1302 76.0156 16.0156C75.9844 15.901 75.9583 15.7917 75.9375 15.6875C75.9167 15.5833 75.901 15.5156 75.8906 15.4844C75.8698 15.4635 75.8385 15.4167 75.7969 15.3438C75.7656 15.2604 75.7448 15.2083 75.7344 15.1875C75.7135 15.1771 75.6875 15.151 75.6562 15.1094C75.625 15.0677 75.5938 15.0208 75.5625 14.9688C75.5312 14.9167 75.5 14.8698 75.4688 14.8281C75.4479 14.776 75.4375 14.7448 75.4375 14.7344C75.4167 14.724 75.3906 14.6927 75.3594 14.6406C75.3281 14.5781 75.2969 14.5156 75.2656 14.4531C75.2344 14.3802 75.2031 14.3125 75.1719 14.25C75.151 14.1875 75.1406 14.151 75.1406 14.1406C75.0677 14.0677 74.9531 14 74.7969 13.9375C74.6406 13.8646 74.5573 13.8333 74.5469 13.8438L74.375 14C74.3646 14.0521 74.3438 14.1458 74.3125 14.2812C74.2812 14.4167 74.25 14.5625 74.2188 14.7188C74.1875 14.875 74.1562 15.026 74.125 15.1719C74.1042 15.3177 74.0885 15.4219 74.0781 15.4844C73.9635 16.0469 73.8906 16.6042 73.8594 17.1562C73.8385 17.6979 73.8125 18.25 73.7812 18.8125C73.7812 18.8333 73.7708 18.8802 73.75 18.9531C73.7292 19.026 73.7083 19.1042 73.6875 19.1875C73.6667 19.2708 73.6458 19.349 73.625 19.4219C73.6042 19.4948 73.5938 19.5365 73.5938 19.5469V20.25V20.9219C73.625 20.9531 73.6771 21.0052 73.75 21.0781C73.8229 21.1406 73.901 21.2135 73.9844 21.2969C74.0677 21.3698 74.1458 21.4427 74.2188 21.5156C74.2917 21.5781 74.3438 21.625 74.375 21.6562C74.5 21.7396 74.6406 21.7865 74.7969 21.7969C74.9531 21.7969 75.099 21.8125 75.2344 21.8438C75.3802 21.8646 75.5 21.9323 75.5938 22.0469C75.6875 22.151 75.7344 22.3542 75.7344 22.6562V22.7031C75.7031 22.7448 75.651 22.8021 75.5781 22.875C75.5052 22.9375 75.4583 22.9792 75.4375 23C75.4271 23.0104 75.4167 23.0156 75.4062 23.0156C75.3958 23.026 75.375 23.0312 75.3438 23.0312C75.3333 23.0312 75.3177 23.026 75.2969 23.0156C75.2865 23.0052 75.2708 23 75.25 23C75.2396 23 75.2083 22.9948 75.1562 22.9844C75.1042 22.9635 75.0417 22.9479 74.9688 22.9375C74.8958 22.9167 74.8281 22.901 74.7656 22.8906C74.7031 22.8698 74.6615 22.8594 74.6406 22.8594C74.6198 22.8594 74.5417 22.8698 74.4062 22.8906C74.2812 22.901 74.1406 22.9167 73.9844 22.9375C73.8281 22.9479 73.6823 22.9635 73.5469 22.9844C73.4115 22.9948 73.3281 23 73.2969 23C73.2865 23.0104 73.2344 23.0156 73.1406 23.0156C73.0469 23.026 72.9323 23.0312 72.7969 23.0312C72.6719 23.0312 72.5417 23.0312 72.4062 23.0312C72.2812 23.0312 72.1719 23.0312 72.0781 23.0312C72.0052 23.0312 71.9062 23.0312 71.7812 23.0312C71.6562 23.0312 71.5312 23.0312 71.4062 23.0312C71.2812 23.0312 71.1667 23.026 71.0625 23.0156C70.9688 23.0156 70.9115 23.0104 70.8906 23C70.776 23 70.6406 23 70.4844 23C70.3385 22.9896 70.1927 22.9688 70.0469 22.9375C69.9115 22.8958 69.7917 22.8333 69.6875 22.75C69.5938 22.6562 69.5469 22.5208 69.5469 22.3438C69.5469 22.0729 69.6354 21.8698 69.8125 21.7344C70 21.5885 70.2135 21.474 70.4531 21.3906C70.7031 21.2969 70.9531 21.2083 71.2031 21.125C71.4531 21.0417 71.6458 20.9167 71.7812 20.75C71.8021 20.7396 71.8333 20.6927 71.875 20.6094C71.9271 20.5156 71.9792 20.4219 72.0312 20.3281C72.0833 20.224 72.1302 20.125 72.1719 20.0312C72.2135 19.9375 72.2396 19.8802 72.25 19.8594C72.2708 19.849 72.2969 19.8281 72.3281 19.7969C72.3698 19.7552 72.4062 19.724 72.4375 19.7031C72.2917 19.5677 72.1927 19.4688 72.1406 19.4062C72.099 19.3438 72.0781 19.2448 72.0781 19.1094C72.0781 19.0885 72.0885 19.0625 72.1094 19.0312C72.1302 18.9896 72.1406 18.9635 72.1406 18.9531C72.1406 18.8802 72.1615 18.7135 72.2031 18.4531C72.2448 18.1823 72.2865 17.8958 72.3281 17.5938C72.3802 17.2917 72.4271 17.0104 72.4688 16.75C72.5104 16.4792 72.5365 16.3125 72.5469 16.25C72.5573 16.1979 72.5677 16.0677 72.5781 15.8594C72.599 15.651 72.6146 15.4271 72.625 15.1875C72.6458 14.9479 72.6615 14.7292 72.6719 14.5312C72.6927 14.3229 72.7135 14.1927 72.7344 14.1406C72.7552 13.9427 72.7865 13.75 72.8281 13.5625C72.8802 13.3646 72.9323 13.1719 72.9844 12.9844C73.0365 12.7969 73.0833 12.6094 73.125 12.4219C73.1667 12.224 73.1875 12.0208 73.1875 11.8125C73.1875 11.5208 73.1406 11.2812 73.0469 11.0938C72.9635 10.8958 72.7969 10.7083 72.5469 10.5312C72.4948 10.5312 72.4062 10.526 72.2812 10.5156C72.1562 10.4948 72.0208 10.4792 71.875 10.4688C71.7292 10.4479 71.5885 10.4323 71.4531 10.4219C71.3281 10.401 71.2396 10.3854 71.1875 10.375C71 10.3333 70.8281 10.2812 70.6719 10.2188C70.5156 10.1458 70.4375 10 70.4375 9.78125C70.4375 9.625 70.4844 9.48958 70.5781 9.375C70.6719 9.26042 70.7865 9.16667 70.9219 9.09375C71.0573 9.01042 71.2031 8.95312 71.3594 8.92188C71.5156 8.88021 71.6562 8.85938 71.7812 8.85938C71.8229 8.85938 71.9062 8.89062 72.0312 8.95312C72.1562 9.00521 72.2292 9.03125 72.25 9.03125C72.2917 9.03125 72.3698 9.01042 72.4844 8.96875C72.599 8.91667 72.6823 8.88021 72.7344 8.85938H73.2188C73.5938 8.85938 73.9583 8.86979 74.3125 8.89062C74.6667 8.91146 75.0417 8.95833 75.4375 9.03125C75.6667 9.0625 75.8698 9.21875 76.0469 9.5C76.224 9.77083 76.375 10.0885 76.5 10.4531C76.625 10.8073 76.7344 11.1615 76.8281 11.5156C76.9219 11.8698 77.0052 12.1406 77.0781 12.3281C77.0885 12.349 77.1146 12.4062 77.1562 12.5C77.1979 12.5833 77.2448 12.6771 77.2969 12.7812C77.349 12.875 77.3958 12.9688 77.4375 13.0625C77.4896 13.1562 77.526 13.2135 77.5469 13.2344C77.5469 13.2552 77.5521 13.3021 77.5625 13.375C77.5833 13.4375 77.599 13.5156 77.6094 13.6094C77.6302 13.6927 77.6458 13.7708 77.6562 13.8438C77.6667 13.9167 77.6719 13.9688 77.6719 14C77.6823 14.0104 77.7031 14.0521 77.7344 14.125C77.7656 14.1875 77.7969 14.2604 77.8281 14.3438C77.8698 14.4271 77.9062 14.5104 77.9375 14.5938C77.9688 14.6667 77.9896 14.7135 78 14.7344C78.0104 14.776 78.026 14.849 78.0469 14.9531C78.0677 15.0469 78.0938 15.151 78.125 15.2656C78.1562 15.3698 78.1875 15.474 78.2188 15.5781C78.25 15.6719 78.276 15.7396 78.2969 15.7812C78.2969 15.8125 78.3021 15.8646 78.3125 15.9375C78.3229 16.0104 78.3333 16.0885 78.3438 16.1719C78.3542 16.2552 78.3646 16.3333 78.375 16.4062C78.3958 16.4792 78.4167 16.526 78.4375 16.5469C78.5417 16.776 78.6615 16.9844 78.7969 17.1719C78.9323 17.349 79.0625 17.526 79.1875 17.7031C79.3229 17.8802 79.4427 18.0677 79.5469 18.2656C79.651 18.4635 79.7292 18.6927 79.7812 18.9531C79.8021 18.9531 79.8177 18.9583 79.8281 18.9688C79.8385 18.9688 79.849 18.9688 79.8594 18.9688C79.974 18.9688 80.0417 18.9115 80.0625 18.7969C80.0938 18.6719 80.1094 18.5781 80.1094 18.5156C80.1094 18.3802 80.0729 18.2604 80 18.1562C79.9271 18.0521 79.8906 17.9271 79.8906 17.7812C79.8906 17.625 79.9375 17.4792 80.0312 17.3438C80.1354 17.2083 80.25 17.0781 80.375 16.9531C80.5104 16.8177 80.6354 16.6823 80.75 16.5469C80.875 16.401 80.9583 16.2448 81 16.0781C81.0104 16.0469 81.0208 15.9844 81.0312 15.8906C81.0521 15.7865 81.0677 15.6771 81.0781 15.5625C81.099 15.4479 81.1146 15.3438 81.125 15.25C81.1354 15.1458 81.1406 15.0781 81.1406 15.0469C81.151 15.0365 81.1719 14.9896 81.2031 14.9062C81.2448 14.8125 81.276 14.7552 81.2969 14.7344C81.474 14.4635 81.6615 14.1771 81.8594 13.875C82.0677 13.5625 82.2344 13.25 82.3594 12.9375C82.4323 12.7396 82.5 12.5312 82.5625 12.3125C82.6354 12.0938 82.7031 11.8698 82.7656 11.6406C82.8281 11.4115 82.8854 11.1927 82.9375 10.9844C83 10.7656 83.0573 10.5625 83.1094 10.375C83.1823 10.0833 83.2396 9.84375 83.2812 9.65625C83.3229 9.46875 83.3854 9.32292 83.4688 9.21875C83.5521 9.10417 83.6771 9.02083 83.8438 8.96875C84.0104 8.91667 84.2604 8.88021 84.5938 8.85938C84.6354 8.85938 84.724 8.85417 84.8594 8.84375C84.9948 8.83333 85.1354 8.82292 85.2812 8.8125C85.4375 8.79167 85.5781 8.77604 85.7031 8.76562C85.8385 8.74479 85.9271 8.73438 85.9688 8.73438C86.2292 8.71354 86.5417 8.68229 86.9062 8.64062C87.2708 8.58854 87.5833 8.5625 87.8438 8.5625H87.9219C87.9427 8.58333 87.9896 8.61979 88.0625 8.67188C88.1458 8.71354 88.1979 8.73438 88.2188 8.73438C88.2292 8.73438 88.2708 8.74479 88.3438 8.76562C88.4271 8.77604 88.5104 8.79167 88.5938 8.8125C88.6771 8.82292 88.7552 8.83333 88.8281 8.84375C88.9115 8.85417 88.9583 8.85938 88.9688 8.85938C89.0417 8.89062 89.0885 8.94792 89.1094 9.03125C89.1302 9.10417 89.1406 9.17188 89.1406 9.23438V9.34375C89.1406 9.48958 89.1146 9.60417 89.0625 9.6875C89.0104 9.77083 88.9427 9.83333 88.8594 9.875C88.776 9.91667 88.6771 9.95312 88.5625 9.98438C88.4583 10.0052 88.3438 10.0365 88.2188 10.0781C88.1979 10.0781 88.1458 10.1042 88.0625 10.1562C87.9896 10.1979 87.9427 10.2188 87.9219 10.2188C87.8698 10.2292 87.7812 10.2344 87.6562 10.2344C87.5417 10.2344 87.4219 10.2344 87.2969 10.2344C87.1615 10.2344 87.0365 10.2344 86.9219 10.2344C86.8177 10.2344 86.7448 10.2292 86.7031 10.2188L86.4531 10.4531L86.6719 14V17.4531C86.9323 17.8385 87.1146 18.2708 87.2188 18.75C87.3333 19.2292 87.4167 19.6979 87.4688 20.1562C87.4792 20.1771 87.5 20.2083 87.5312 20.25C87.5729 20.2812 87.6042 20.2969 87.625 20.2969C87.7812 20.3802 88.0156 20.4844 88.3281 20.6094C88.651 20.724 88.9688 20.8542 89.2812 21C89.5938 21.1458 89.8698 21.3125 90.1094 21.5C90.349 21.6875 90.4688 21.8906 90.4688 22.1094C90.4688 22.2448 90.4271 22.375 90.3438 22.5C90.2604 22.625 90.1615 22.7396 90.0469 22.8438C89.9323 22.9375 89.8021 23.0104 89.6562 23.0625C89.5208 23.125 89.401 23.1562 89.2969 23.1562H89.1094C89.0781 23.1562 88.9896 23.1458 88.8438 23.125C88.6979 23.1146 88.5365 23.099 88.3594 23.0781C88.1927 23.0677 88.0365 23.0521 87.8906 23.0312C87.7448 23.0208 87.6562 23.0104 87.625 23H86.8594H86.5625C86.5312 23 86.4792 22.9948 86.4062 22.9844C86.3333 22.9635 86.25 22.9479 86.1562 22.9375C86.0729 22.9167 85.9948 22.901 85.9219 22.8906C85.8594 22.8698 85.8229 22.8594 85.8125 22.8594H85.6719ZM91.9531 22.0312C91.9531 21.9688 91.974 21.9062 92.0156 21.8438C92.0573 21.7708 92.1042 21.7031 92.1562 21.6406C92.2188 21.5781 92.276 21.5208 92.3281 21.4688C92.3906 21.4167 92.4375 21.375 92.4688 21.3438H92.875C93.1042 21.3438 93.3281 21.3385 93.5469 21.3281C93.776 21.3073 93.9896 21.2708 94.1875 21.2188C94.3958 21.1667 94.5885 21.0781 94.7656 20.9531C94.9531 20.8281 95.125 20.6562 95.2812 20.4375L95.7656 19.8438C95.8177 19.7917 95.849 19.7448 95.8594 19.7031C95.8698 19.651 95.875 19.5677 95.875 19.4531L95.7656 17.4062C95.7656 17.0729 95.8177 16.7552 95.9219 16.4531C96.0365 16.151 96.0938 15.8542 96.0938 15.5625C96.0938 15.2396 96.0365 14.9062 95.9219 14.5625C95.8177 14.2188 95.7656 13.8698 95.7656 13.5156C95.7656 13.4323 95.776 13.3646 95.7969 13.3125C95.8281 13.25 95.8542 13.1927 95.875 13.1406C95.9062 13.0781 95.9323 13.0156 95.9531 12.9531C95.9844 12.8906 96 12.8177 96 12.7344L95.8438 11.625L96 10.1406V9.53125L95.7656 9.10938C95.7448 8.84896 95.7188 8.59896 95.6875 8.35938C95.6667 8.15104 95.6458 7.94271 95.625 7.73438C95.6042 7.52604 95.5885 7.35417 95.5781 7.21875L95.7969 6.48438C95.7969 6.33854 95.7656 6.09896 95.7031 5.76562C95.6406 5.43229 95.5573 5.08854 95.4531 4.73438C95.349 4.38021 95.2344 4.05729 95.1094 3.76562C94.9948 3.47396 94.8802 3.29688 94.7656 3.23438C94.5885 3.18229 94.3438 3.13542 94.0312 3.09375C93.7188 3.04167 93.4062 2.96875 93.0938 2.875C92.7917 2.77083 92.526 2.63542 92.2969 2.46875C92.0677 2.30208 91.9531 2.07292 91.9531 1.78125C91.9531 1.6875 91.9792 1.64062 92.0312 1.64062C92.1979 1.64062 92.3438 1.625 92.4688 1.59375C92.5938 1.5625 92.7083 1.52604 92.8125 1.48438C92.9271 1.44271 93.0365 1.40625 93.1406 1.375C93.2552 1.34375 93.3802 1.32812 93.5156 1.32812L94.7656 1.48438L97.2812 1.23438L97.7969 1.40625L98.6094 1.23438C98.9115 1.19271 99.2083 1.16667 99.5 1.15625C99.7917 1.13542 100.089 1.125 100.391 1.125C100.672 1.125 100.953 1.13542 101.234 1.15625C101.516 1.16667 101.792 1.19271 102.062 1.23438C102.281 1.34896 102.5 1.41667 102.719 1.4375C102.948 1.44792 103.177 1.45312 103.406 1.45312C103.656 1.45312 103.901 1.46354 104.141 1.48438C104.38 1.50521 104.615 1.54167 104.844 1.59375C105.031 1.625 105.276 1.71354 105.578 1.85938C105.88 1.99479 106.188 2.16146 106.5 2.35938C106.823 2.54688 107.115 2.75521 107.375 2.98438C107.646 3.21354 107.839 3.43229 107.953 3.64062C108.047 3.88021 108.13 4.14062 108.203 4.42188C108.286 4.70312 108.359 4.98958 108.422 5.28125C108.484 5.5625 108.531 5.84896 108.562 6.14062C108.604 6.42188 108.625 6.6875 108.625 6.9375C108.625 7.0625 108.62 7.22917 108.609 7.4375C108.609 7.64583 108.594 7.85938 108.562 8.07812C108.542 8.29688 108.51 8.5 108.469 8.6875C108.427 8.875 108.375 9.01562 108.312 9.10938L107.844 9.70312L107.734 10.2969C107.682 10.4219 107.562 10.5938 107.375 10.8125C107.198 11.0208 106.995 11.2396 106.766 11.4688C106.547 11.6875 106.328 11.8906 106.109 12.0781C105.901 12.2656 105.734 12.3854 105.609 12.4375C105.516 12.4896 105.401 12.5521 105.266 12.625C105.13 12.6875 104.99 12.7552 104.844 12.8281C104.698 12.901 104.557 12.9688 104.422 13.0312C104.297 13.0833 104.193 13.1198 104.109 13.1406L103.016 13.2188L102.328 13.4375C102.203 13.4375 102.052 13.4219 101.875 13.3906C101.698 13.349 101.526 13.2917 101.359 13.2188C101.203 13.1458 101.062 13.0677 100.938 12.9844C100.823 12.8906 100.766 12.7865 100.766 12.6719C100.766 12.5052 100.875 12.3802 101.094 12.2969L102.906 11.9219C102.917 11.8698 102.953 11.8281 103.016 11.7969C103.089 11.7552 103.151 11.724 103.203 11.7031C103.568 11.5156 103.906 11.2708 104.219 10.9688C104.531 10.6562 104.802 10.3125 105.031 9.9375C105.26 9.5625 105.438 9.16667 105.562 8.75C105.698 8.32292 105.766 7.89062 105.766 7.45312C105.745 7.36979 105.714 7.29688 105.672 7.23438C105.641 7.16146 105.62 7.09896 105.609 7.04688C105.609 7.03646 105.604 7.02604 105.594 7.01562C105.583 6.99479 105.578 6.96354 105.578 6.92188C105.536 6.63021 105.49 6.29167 105.438 5.90625C105.385 5.51042 105.307 5.17188 105.203 4.89062C105.161 4.78646 105.047 4.64583 104.859 4.46875C104.682 4.28125 104.474 4.08333 104.234 3.875C104.005 3.66667 103.766 3.46354 103.516 3.26562C103.276 3.05729 103.073 2.88021 102.906 2.73438L101.516 2.40625H100.281C100.188 2.45833 100.052 2.50521 99.875 2.54688C99.7083 2.58854 99.5417 2.64062 99.375 2.70312C99.2188 2.76562 99.0781 2.85417 98.9531 2.96875C98.8281 3.07292 98.7656 3.21875 98.7656 3.40625V5.21875C98.8385 5.3125 98.8802 5.38542 98.8906 5.4375C98.901 5.48958 98.9062 5.57812 98.9062 5.70312L98.7656 6.29688C98.7656 6.31771 98.7865 6.38542 98.8281 6.5C98.8802 6.60417 98.9062 6.68229 98.9062 6.73438V7L98.625 7.8125L98.9844 9.625C98.9844 9.71875 98.9792 9.79688 98.9688 9.85938C98.9688 9.91146 98.9479 9.99479 98.9062 10.1094V12.5156C98.9479 12.6094 98.9688 12.6979 98.9688 12.7812C98.9792 12.8542 98.9844 12.9375 98.9844 13.0312L98.7656 13.9375C98.7656 14.3229 98.8177 14.7083 98.9219 15.0938C99.026 15.4688 99.0885 15.8542 99.1094 16.25C99.1198 16.5417 99.125 16.8438 99.125 17.1562C99.125 17.4583 99.1302 17.7656 99.1406 18.0781C99.151 18.3802 99.1719 18.6823 99.2031 18.9844C99.2344 19.276 99.2969 19.5625 99.3906 19.8438C99.401 19.9167 99.5156 20.0312 99.7344 20.1875C99.9635 20.3438 100.219 20.5052 100.5 20.6719C100.781 20.8281 101.047 20.9688 101.297 21.0938C101.557 21.2083 101.724 21.2656 101.797 21.2656H102.281C102.396 21.2656 102.479 21.2708 102.531 21.2812C102.583 21.2812 102.646 21.3021 102.719 21.3438C102.719 21.3542 102.74 21.3802 102.781 21.4219C102.833 21.4635 102.891 21.5156 102.953 21.5781C103.016 21.6302 103.078 21.6823 103.141 21.7344C103.214 21.7865 103.276 21.8281 103.328 21.8594C103.349 21.9115 103.365 21.9531 103.375 21.9844C103.396 22.0156 103.406 22.0573 103.406 22.1094V22.1562C103.312 22.3646 103.167 22.526 102.969 22.6406C102.781 22.7552 102.573 22.8385 102.344 22.8906C102.115 22.9427 101.88 22.974 101.641 22.9844C101.401 22.9948 101.182 23 100.984 23L99.7969 22.7812C99.6823 22.7812 99.5677 22.8073 99.4531 22.8594C99.349 22.901 99.2344 22.9219 99.1094 22.9219L97.8125 22.5625H97.625C97.5417 22.5625 97.4896 22.5729 97.4688 22.5938C97.0208 22.6458 96.5729 22.7292 96.125 22.8438C95.6771 22.9479 95.1979 23 94.6875 23C94.4792 23 94.2188 22.9948 93.9062 22.9844C93.6042 22.974 93.3073 22.9375 93.0156 22.875C92.724 22.8125 92.474 22.7188 92.2656 22.5938C92.0573 22.4583 91.9531 22.2708 91.9531 22.0312ZM110.453 22.5469C110.453 22.3385 110.521 22.1979 110.656 22.125C110.792 22.0417 110.958 21.9844 111.156 21.9531C111.354 21.9219 111.557 21.8958 111.766 21.875C111.974 21.8542 112.151 21.7969 112.297 21.7031C112.307 21.6927 112.318 21.6771 112.328 21.6562C112.359 21.625 112.375 21.6042 112.375 21.5938C112.406 21.5521 112.448 21.4844 112.5 21.3906C112.562 21.2969 112.62 21.2031 112.672 21.1094C112.734 21.0052 112.792 20.9115 112.844 20.8281C112.896 20.7344 112.927 20.6719 112.938 20.6406C112.99 20.5573 113.021 20.474 113.031 20.3906C113.042 20.2969 113.047 20.1562 113.047 19.9688C113.047 19.8542 113.036 19.7604 113.016 19.6875C112.995 19.6146 112.974 19.5469 112.953 19.4844C112.932 19.4219 112.911 19.3594 112.891 19.2969C112.87 19.224 112.859 19.1406 112.859 19.0469L113.156 17.4844C113.156 17.4427 113.146 17.375 113.125 17.2812C113.115 17.1771 113.089 17 113.047 16.75V16C113.026 15.9688 112.99 15.8854 112.938 15.75C112.885 15.6042 112.859 15.4896 112.859 15.4062C112.943 15.1458 112.995 14.8906 113.016 14.6406C113.036 14.3802 113.047 14.1146 113.047 13.8438V13.3281L112.938 12.8438C112.917 12.7188 112.906 12.5938 112.906 12.4688C112.906 12.3333 112.906 12.2031 112.906 12.0781C112.906 11.9635 112.906 11.8438 112.906 11.7188C112.906 11.5938 112.917 11.4635 112.938 11.3281C112.917 11.2135 112.849 11.1042 112.734 11C112.62 10.8854 112.536 10.8021 112.484 10.75C112.276 10.6042 112.052 10.526 111.812 10.5156C111.583 10.5052 111.365 10.4896 111.156 10.4688C110.958 10.4479 110.792 10.3854 110.656 10.2812C110.521 10.1667 110.453 9.9375 110.453 9.59375C110.453 9.38542 110.542 9.25 110.719 9.1875C110.896 9.11458 111.068 9.06771 111.234 9.04688H112.125C112.604 9.04688 113.073 9.04167 113.531 9.03125C114 9.02083 114.469 8.98958 114.938 8.9375C115.01 8.88542 115.099 8.85417 115.203 8.84375C115.307 8.83333 115.417 8.82812 115.531 8.82812H116.562C116.583 8.82812 116.62 8.83333 116.672 8.84375C116.734 8.85417 116.797 8.86979 116.859 8.89062C116.922 8.90104 116.979 8.91146 117.031 8.92188C117.083 8.93229 117.115 8.9375 117.125 8.9375C117.271 8.9375 117.422 8.95312 117.578 8.98438C117.734 9.00521 117.812 9.05729 117.812 9.14062C117.823 9.19271 117.833 9.24479 117.844 9.29688C117.854 9.33854 117.859 9.38542 117.859 9.4375C117.859 9.5 117.854 9.56771 117.844 9.64062C117.833 9.70312 117.823 9.76042 117.812 9.8125C117.792 9.86458 117.74 9.91667 117.656 9.96875C117.583 10.0104 117.5 10.0521 117.406 10.0938C117.312 10.1354 117.219 10.1719 117.125 10.2031C117.031 10.224 116.969 10.2448 116.938 10.2656L116.375 10.75C116.292 10.8021 116.188 10.8385 116.062 10.8594C115.938 10.8802 115.849 10.9427 115.797 11.0469C115.786 11.0677 115.755 11.125 115.703 11.2188C115.661 11.3125 115.63 11.3854 115.609 11.4375C115.599 11.4583 115.583 11.5104 115.562 11.5938C115.552 11.6354 115.542 11.6719 115.531 11.7031V13.1406C115.531 13.1615 115.542 13.2188 115.562 13.3125C115.583 13.3958 115.599 13.5 115.609 13.625C115.609 13.6458 115.599 13.6927 115.578 13.7656C115.557 13.8385 115.531 13.9167 115.5 14C115.479 14.0833 115.458 14.1615 115.438 14.2344C115.427 14.3073 115.422 14.3542 115.422 14.375V15.7031L115.312 17.4844L115.609 18.8594V19.3281C115.609 19.349 115.594 19.4167 115.562 19.5312C115.542 19.6458 115.531 19.7292 115.531 19.7812C115.531 19.8125 115.547 19.8698 115.578 19.9531C115.62 20.026 115.661 20.1042 115.703 20.1875C115.755 20.2708 115.802 20.349 115.844 20.4219C115.885 20.4948 115.906 20.5417 115.906 20.5625C115.938 20.6562 115.958 20.7708 115.969 20.9062C115.99 21.0312 116.016 21.1562 116.047 21.2812C116.089 21.3958 116.146 21.4948 116.219 21.5781C116.302 21.6615 116.417 21.7031 116.562 21.7031C116.677 21.7031 116.776 21.6875 116.859 21.6562C116.943 21.6146 117.031 21.5938 117.125 21.5938C117.198 21.5938 117.292 21.6042 117.406 21.625C117.531 21.6458 117.651 21.6823 117.766 21.7344C117.88 21.776 117.979 21.8385 118.062 21.9219C118.146 21.9948 118.188 22.0833 118.188 22.1875C118.188 22.3542 118.146 22.4948 118.062 22.6094C117.99 22.7135 117.891 22.8021 117.766 22.875C117.651 22.9375 117.521 22.9792 117.375 23C117.229 23.0312 117.094 23.0469 116.969 23.0469L115.266 22.9531H114.828C114.807 22.9531 114.745 22.9688 114.641 23C114.536 23.0312 114.474 23.0469 114.453 23.0469H112.859L112.188 23.1406H111.703C111.589 23.1406 111.458 23.1354 111.312 23.125C111.177 23.125 111.042 23.1042 110.906 23.0625C110.781 23.0312 110.672 22.974 110.578 22.8906C110.495 22.8073 110.453 22.6927 110.453 22.5469ZM120.312 22.625C120.281 22.6042 120.245 22.5677 120.203 22.5156C120.161 22.4531 120.13 22.3958 120.109 22.3438C120.109 22.3333 120.12 22.3177 120.141 22.2969C120.161 22.276 120.182 22.2604 120.203 22.25C120.276 22.1979 120.365 22.1406 120.469 22.0781C120.573 22.0156 120.682 21.9531 120.797 21.8906C120.911 21.8281 121.026 21.7708 121.141 21.7188C121.255 21.6562 121.354 21.6042 121.438 21.5625C121.833 21.3854 122.172 21.151 122.453 20.8594C122.734 20.5573 123.026 20.2552 123.328 19.9531C123.359 19.9531 123.411 19.9271 123.484 19.875C123.568 19.8125 123.615 19.7812 123.625 19.7812C123.656 19.75 123.708 19.6979 123.781 19.625C123.865 19.5521 123.943 19.474 124.016 19.3906C124.099 19.3073 124.172 19.2292 124.234 19.1562C124.307 19.0833 124.359 19.0312 124.391 19C124.453 18.9271 124.49 18.8333 124.5 18.7188C124.521 18.5938 124.547 18.5 124.578 18.4375C124.589 18.4271 124.604 18.4167 124.625 18.4062L124.688 18.3438C124.771 18.2812 124.87 18.2031 124.984 18.1094C125.109 18.0052 125.224 17.8958 125.328 17.7812C125.443 17.6562 125.536 17.5312 125.609 17.4062C125.693 17.2812 125.734 17.1615 125.734 17.0469C125.734 16.849 125.656 16.6875 125.5 16.5625C125.354 16.4375 125.234 16.3021 125.141 16.1562C125.13 16.1354 125.109 16.0938 125.078 16.0312C125.057 15.9583 125.031 15.8854 125 15.8125C124.979 15.7396 124.953 15.6719 124.922 15.6094C124.901 15.5469 124.885 15.5052 124.875 15.4844C124.802 15.3385 124.734 15.25 124.672 15.2188C124.62 15.1875 124.526 15.1146 124.391 15C124.359 14.9792 124.312 14.9427 124.25 14.8906C124.188 14.8281 124.12 14.7604 124.047 14.6875C123.974 14.6146 123.906 14.5469 123.844 14.4844C123.781 14.4219 123.74 14.375 123.719 14.3438C123.719 14.3333 123.688 14.2865 123.625 14.2031C123.573 14.1198 123.536 14.0677 123.516 14.0469L123.25 13.75L123.141 13.2188C123.141 13.1979 123.115 13.1458 123.062 13.0625C123.01 12.9792 122.974 12.9323 122.953 12.9219C122.953 12.901 122.938 12.8542 122.906 12.7812C122.885 12.6979 122.875 12.6458 122.875 12.625C122.823 12.5 122.771 12.4062 122.719 12.3438C122.667 12.2708 122.615 12.2135 122.562 12.1719C122.51 12.1198 122.453 12.0729 122.391 12.0312C122.339 11.9896 122.276 11.9323 122.203 11.8594C122.182 11.849 122.13 11.8073 122.047 11.7344C121.974 11.6615 121.896 11.5833 121.812 11.5C121.729 11.4167 121.651 11.3385 121.578 11.2656C121.505 11.1823 121.458 11.1302 121.438 11.1094C121.375 11.0469 121.297 11.0052 121.203 10.9844C121.109 10.9531 121.016 10.9323 120.922 10.9219C120.828 10.901 120.734 10.8802 120.641 10.8594C120.547 10.8385 120.464 10.7969 120.391 10.7344C120.349 10.7031 120.292 10.651 120.219 10.5781C120.146 10.4948 120.109 10.4479 120.109 10.4375V9.67188L120.141 9.64062C120.172 9.60938 120.193 9.59375 120.203 9.59375L120.5 9.40625C120.51 9.375 120.536 9.34896 120.578 9.32812C120.63 9.30729 120.667 9.29688 120.688 9.29688C120.927 9.27604 121.172 9.26042 121.422 9.25C121.682 9.23958 121.943 9.23438 122.203 9.23438C122.464 9.23438 122.714 9.23958 122.953 9.25C123.203 9.25 123.458 9.26562 123.719 9.29688C123.76 9.31771 123.844 9.34375 123.969 9.375C124.094 9.39583 124.172 9.40625 124.203 9.40625C124.234 9.40625 124.318 9.41146 124.453 9.42188C124.599 9.42188 124.75 9.42708 124.906 9.4375C125.073 9.44792 125.224 9.45833 125.359 9.46875C125.505 9.46875 125.594 9.47396 125.625 9.48438C125.948 9.51562 126.109 9.67708 126.109 9.96875C126.109 10.1146 126.068 10.2448 125.984 10.3594C125.901 10.4635 125.812 10.5677 125.719 10.6719C125.625 10.776 125.536 10.8854 125.453 11C125.37 11.1146 125.328 11.25 125.328 11.4062C125.328 11.5833 125.365 11.7656 125.438 11.9531C125.51 12.1302 125.604 12.2917 125.719 12.4375L126.312 13C126.312 13.0104 126.312 13.0469 126.312 13.1094C126.323 13.1615 126.333 13.224 126.344 13.2969C126.354 13.3594 126.359 13.4219 126.359 13.4844C126.37 13.5365 126.38 13.5729 126.391 13.5938L126.766 13.9688C126.786 13.9688 126.812 13.974 126.844 13.9844C126.875 13.9948 126.932 14 127.016 14C127.057 14 127.104 14 127.156 14C127.208 14 127.266 13.9896 127.328 13.9688C127.339 13.9583 127.37 13.9479 127.422 13.9375C127.474 13.9271 127.526 13.9219 127.578 13.9219C127.641 13.9115 127.693 13.901 127.734 13.8906C127.786 13.8802 127.812 13.8698 127.812 13.8594C127.833 13.8594 127.865 13.8385 127.906 13.7969C127.958 13.7448 127.995 13.7031 128.016 13.6719L128.203 13.1094C128.297 12.8698 128.401 12.6667 128.516 12.5C128.63 12.3229 128.688 12.0938 128.688 11.8125V11.4844L128.578 11.2969V10.7344C128.578 10.7031 128.536 10.6667 128.453 10.625C128.38 10.5833 128.292 10.526 128.188 10.4531C128.094 10.3802 128.005 10.2865 127.922 10.1719C127.849 10.0469 127.812 9.89062 127.812 9.70312C127.812 9.66146 127.818 9.61458 127.828 9.5625C127.839 9.51042 127.87 9.48438 127.922 9.48438C128.12 9.50521 128.318 9.51562 128.516 9.51562C128.714 9.51562 128.906 9.51562 129.094 9.51562C129.281 9.51562 129.469 9.51562 129.656 9.51562C129.844 9.51562 130.026 9.50521 130.203 9.48438C130.432 9.39062 130.693 9.33854 130.984 9.32812C131.286 9.30729 131.568 9.29688 131.828 9.29688C131.839 9.30729 131.875 9.32292 131.938 9.34375C132 9.36458 132.068 9.38542 132.141 9.40625C132.224 9.42708 132.297 9.44792 132.359 9.46875C132.432 9.47917 132.479 9.48438 132.5 9.48438L132.766 9.45312L133.062 9.48438C133.083 9.48438 133.13 9.52604 133.203 9.60938C133.276 9.68229 133.318 9.73958 133.328 9.78125C133.349 9.78125 133.359 9.80729 133.359 9.85938C133.359 10.0156 133.297 10.1406 133.172 10.2344C133.047 10.3281 132.896 10.4062 132.719 10.4688C132.552 10.5312 132.38 10.5885 132.203 10.6406C132.036 10.6823 131.911 10.7396 131.828 10.8125C131.391 11.1458 130.958 11.5 130.531 11.875C130.115 12.25 129.75 12.6615 129.438 13.1094C129.302 13.2969 129.188 13.526 129.094 13.7969C129.01 14.0573 128.901 14.2708 128.766 14.4375C128.755 14.4479 128.729 14.474 128.688 14.5156C128.656 14.5469 128.62 14.5885 128.578 14.6406C128.536 14.6823 128.495 14.724 128.453 14.7656C128.422 14.8073 128.401 14.8333 128.391 14.8438C128.349 14.8854 128.323 14.9219 128.312 14.9531C128.312 14.974 128.312 15.0052 128.312 15.0469V15.4844L128.391 15.6719C128.411 15.7552 128.427 15.8646 128.438 16C128.458 16.1354 128.505 16.25 128.578 16.3438C128.589 16.3542 128.609 16.3802 128.641 16.4219C128.682 16.4531 128.724 16.4896 128.766 16.5312C128.807 16.5729 128.844 16.6146 128.875 16.6562C128.917 16.6979 128.943 16.724 128.953 16.7344C128.984 16.7552 129.036 16.8177 129.109 16.9219C129.182 17.0156 129.229 17.0781 129.25 17.1094L129.516 17.6719C129.526 17.6927 129.552 17.7292 129.594 17.7812C129.635 17.8229 129.677 17.8698 129.719 17.9219C129.76 17.974 129.797 18.026 129.828 18.0781C129.87 18.1198 129.896 18.1458 129.906 18.1562C129.99 18.2708 130.047 18.4167 130.078 18.5938C130.12 18.7708 130.188 18.9062 130.281 19C130.292 19.0104 130.312 19.0312 130.344 19.0625C130.385 19.0938 130.427 19.125 130.469 19.1562C130.51 19.1875 130.547 19.2188 130.578 19.25C130.62 19.2708 130.646 19.2865 130.656 19.2969C130.729 19.349 130.781 19.4115 130.812 19.4844C130.844 19.5469 130.865 19.6146 130.875 19.6875C130.896 19.75 130.911 19.8125 130.922 19.875C130.943 19.9375 130.979 19.9948 131.031 20.0469C131.083 20.0781 131.141 20.1146 131.203 20.1562L131.328 20.25C131.401 20.3021 131.448 20.3438 131.469 20.375C131.5 20.3958 131.526 20.4219 131.547 20.4531C131.568 20.4844 131.589 20.5208 131.609 20.5625C131.63 20.6042 131.667 20.6615 131.719 20.7344C131.854 20.8802 132.005 21.0156 132.172 21.1406C132.349 21.2552 132.51 21.3698 132.656 21.4844C132.688 21.5052 132.724 21.5417 132.766 21.5938C132.818 21.6354 132.854 21.6615 132.875 21.6719C132.875 21.6927 132.88 21.7292 132.891 21.7812C132.911 21.8229 132.932 21.849 132.953 21.8594C132.995 21.8906 133.073 21.9479 133.188 22.0312C133.312 22.1042 133.396 22.1458 133.438 22.1562C133.438 22.1771 133.443 22.1979 133.453 22.2188C133.453 22.2396 133.453 22.2552 133.453 22.2656C133.464 22.276 133.469 22.2865 133.469 22.2969C133.469 22.3906 133.427 22.4688 133.344 22.5312C133.26 22.5833 133.161 22.625 133.047 22.6562C132.943 22.6875 132.828 22.7083 132.703 22.7188C132.589 22.7292 132.495 22.7344 132.422 22.7344L131.25 22.625C131.073 22.625 130.917 22.6458 130.781 22.6875C130.646 22.7188 130.495 22.7344 130.328 22.7344C130.214 22.7344 130.13 22.724 130.078 22.7031C130.026 22.6823 129.974 22.6615 129.922 22.6406C129.88 22.6198 129.823 22.599 129.75 22.5781C129.688 22.5573 129.583 22.5469 129.438 22.5469L127.953 22.6562C127.839 22.6562 127.75 22.6146 127.688 22.5312C127.635 22.4479 127.609 22.3542 127.609 22.25C127.609 22.1042 127.656 21.9896 127.75 21.9062C127.844 21.8229 127.943 21.75 128.047 21.6875C128.161 21.6146 128.266 21.5417 128.359 21.4688C128.453 21.3854 128.5 21.2812 128.5 21.1562C128.5 21.0104 128.438 20.8542 128.312 20.6875C128.198 20.5104 128.099 20.3646 128.016 20.25C128.005 20.2396 127.984 20.2083 127.953 20.1562C127.932 20.1042 127.906 20.0521 127.875 20C127.844 19.9479 127.812 19.901 127.781 19.8594C127.75 19.8177 127.729 19.7917 127.719 19.7812C127.708 19.7604 127.677 19.7292 127.625 19.6875C127.583 19.6354 127.536 19.5833 127.484 19.5312C127.432 19.4792 127.38 19.4323 127.328 19.3906C127.286 19.3385 127.26 19.3073 127.25 19.2969C127.219 19.2344 127.203 19.1667 127.203 19.0938C127.203 19.0104 127.198 18.9323 127.188 18.8594C127.177 18.7865 127.156 18.724 127.125 18.6719C127.104 18.6094 127.047 18.5677 126.953 18.5469L126.547 18.5156C126.516 18.5156 126.458 18.5156 126.375 18.5156C126.302 18.5156 126.219 18.5208 126.125 18.5312C126.042 18.5417 125.958 18.5521 125.875 18.5625C125.802 18.5729 125.75 18.5938 125.719 18.625V18.9219C125.688 19.0781 125.62 19.2188 125.516 19.3438C125.422 19.4688 125.323 19.5938 125.219 19.7188C125.125 19.8438 125.036 19.9792 124.953 20.125C124.88 20.2604 124.844 20.4271 124.844 20.625C124.844 20.6354 124.844 20.651 124.844 20.6719C124.844 20.6927 124.854 20.7135 124.875 20.7344C124.875 20.7448 124.885 20.8021 124.906 20.9062C124.938 21.0104 124.953 21.0781 124.953 21.1094V21.4844C124.953 21.5052 124.964 21.526 124.984 21.5469C125.016 21.5573 125.042 21.5625 125.062 21.5625C125.125 21.6146 125.203 21.6615 125.297 21.7031C125.401 21.7344 125.5 21.776 125.594 21.8281C125.688 21.8698 125.766 21.9219 125.828 21.9844C125.891 22.0469 125.922 22.125 125.922 22.2188C125.922 22.3646 125.87 22.4792 125.766 22.5625C125.672 22.6458 125.552 22.7083 125.406 22.75C125.271 22.7812 125.125 22.8021 124.969 22.8125C124.823 22.8125 124.693 22.8125 124.578 22.8125H124.203C123.557 22.7917 122.901 22.776 122.234 22.7656C121.578 22.7552 120.938 22.7083 120.312 22.625ZM143.609 20.9531C143.599 20.9427 143.583 20.9115 143.562 20.8594C143.542 20.7969 143.521 20.7344 143.5 20.6719C143.479 20.6094 143.458 20.5521 143.438 20.5C143.427 20.4479 143.422 20.4167 143.422 20.4062C143.401 20.375 143.391 20.3333 143.391 20.2812C143.391 20.2188 143.391 20.151 143.391 20.0781C143.391 20.0156 143.391 19.9531 143.391 19.8906C143.391 19.8281 143.401 19.7812 143.422 19.75C143.276 19.6146 143.188 19.4948 143.156 19.3906C143.135 19.276 143.125 19.1458 143.125 19V18.6719C143.125 18.651 143.115 18.6198 143.094 18.5781C143.073 18.5365 143.057 18.5052 143.047 18.4844C143.016 18.4635 142.953 18.4062 142.859 18.3125C142.776 18.2188 142.708 18.1615 142.656 18.1406C142.573 18.0677 142.469 18.0208 142.344 18C142.219 17.9792 142.109 17.9323 142.016 17.8594C141.995 17.8594 141.943 17.8594 141.859 17.8594C141.786 17.8594 141.74 17.8542 141.719 17.8438C141.646 17.8646 141.557 17.901 141.453 17.9531C141.359 17.9948 141.302 18.026 141.281 18.0469L141.125 18.1406L140.359 18.0469H139.984C139.849 18.0469 139.708 18.0729 139.562 18.125C139.417 18.1771 139.271 18.2448 139.125 18.3281C138.99 18.4115 138.859 18.5104 138.734 18.625C138.62 18.7292 138.526 18.8385 138.453 18.9531C138.432 18.974 138.411 19.0365 138.391 19.1406C138.37 19.2448 138.359 19.3073 138.359 19.3281C138.339 19.3906 138.307 19.4583 138.266 19.5312C138.224 19.5938 138.203 19.6667 138.203 19.75L138.172 20.1406L138.062 20.5469L138.203 21.2656C138.203 21.2865 138.219 21.3125 138.25 21.3438C138.281 21.375 138.318 21.4115 138.359 21.4531C138.474 21.5677 138.531 21.6354 138.531 21.6562C138.531 21.6667 138.547 21.6771 138.578 21.6875C138.62 21.6979 138.661 21.7083 138.703 21.7188C138.745 21.7292 138.786 21.7396 138.828 21.75C138.87 21.75 138.896 21.75 138.906 21.75C138.969 21.75 139.052 21.7552 139.156 21.7656C139.26 21.776 139.359 21.8021 139.453 21.8438C139.557 21.8854 139.646 21.9427 139.719 22.0156C139.792 22.0781 139.828 22.1719 139.828 22.2969C139.828 22.4219 139.781 22.5417 139.688 22.6562C139.594 22.7708 139.479 22.849 139.344 22.8906C139.292 22.901 139.208 22.9167 139.094 22.9375C138.979 22.9583 138.854 22.9844 138.719 23.0156C138.583 23.0469 138.453 23.0729 138.328 23.0938C138.203 23.125 138.115 23.1458 138.062 23.1562L137.688 23L135.422 23.1562C135.286 23.1354 135.167 23.1146 135.062 23.0938C134.969 23.0729 134.88 23.0417 134.797 23C134.724 22.9583 134.656 22.901 134.594 22.8281C134.542 22.7552 134.484 22.651 134.422 22.5156C134.422 22.3281 134.474 22.1771 134.578 22.0625C134.693 21.9375 134.828 21.8333 134.984 21.75C135.141 21.6667 135.302 21.5938 135.469 21.5312C135.635 21.4583 135.771 21.3906 135.875 21.3281C135.875 21.3073 135.885 21.2917 135.906 21.2812C135.938 21.2604 135.964 21.2396 135.984 21.2188C136.078 21.125 136.177 21.0156 136.281 20.8906C136.396 20.7656 136.479 20.6302 136.531 20.4844C136.542 20.474 136.557 20.4427 136.578 20.3906C136.599 20.3385 136.62 20.2812 136.641 20.2188C136.661 20.1562 136.677 20.099 136.688 20.0469C136.708 19.9948 136.719 19.9635 136.719 19.9531C136.833 19.651 136.969 19.3802 137.125 19.1406C137.281 18.8906 137.417 18.6458 137.531 18.4062C137.542 18.3958 137.557 18.3646 137.578 18.3125C137.599 18.2604 137.62 18.2031 137.641 18.1406C137.661 18.0781 137.677 18.0208 137.688 17.9688C137.708 17.9167 137.719 17.8802 137.719 17.8594L137.984 16.75C137.995 16.7396 138.01 16.7135 138.031 16.6719C138.052 16.6198 138.073 16.5677 138.094 16.5156C138.115 16.4635 138.13 16.4167 138.141 16.375C138.161 16.3333 138.172 16.3073 138.172 16.2969L138.453 15.375C138.516 15.1458 138.594 14.9583 138.688 14.8125C138.792 14.6562 138.891 14.474 138.984 14.2656L139.062 13.8125C139.083 13.7708 139.104 13.7031 139.125 13.6094C139.146 13.5052 139.161 13.4479 139.172 13.4375L139.344 12.8906C139.344 12.849 139.349 12.7917 139.359 12.7188C139.38 12.6458 139.396 12.5677 139.406 12.4844C139.417 12.401 139.427 12.3229 139.438 12.25C139.448 12.1667 139.453 12.1094 139.453 12.0781V10.8906C139.453 10.8594 139.464 10.8125 139.484 10.75C139.516 10.6875 139.547 10.625 139.578 10.5625C139.609 10.4896 139.646 10.4271 139.688 10.375C139.729 10.3125 139.776 10.2656 139.828 10.2344L140.359 10.0469C140.391 10.0469 140.438 10.0104 140.5 9.9375C140.573 9.85417 140.62 9.80208 140.641 9.78125L141.172 9.53125L141.578 9.14062C141.755 9.14062 141.901 9.21354 142.016 9.35938C142.141 9.49479 142.24 9.63542 142.312 9.78125C142.323 9.83333 142.344 9.91667 142.375 10.0312C142.417 10.1458 142.453 10.2708 142.484 10.4062C142.526 10.5312 142.562 10.651 142.594 10.7656C142.635 10.8802 142.656 10.9583 142.656 11V11.4531C142.677 11.474 142.698 11.5052 142.719 11.5469C142.74 11.5885 142.755 11.6198 142.766 11.6406C142.911 11.8802 143.036 12.151 143.141 12.4531C143.245 12.7448 143.339 13.0417 143.422 13.3438C143.443 13.5521 143.453 13.6719 143.453 13.7031C143.464 13.7344 143.479 13.75 143.5 13.75C143.594 13.75 143.661 13.7969 143.703 13.8906C143.755 13.974 143.807 14.0729 143.859 14.1875L144.047 14.7031C144.047 14.7344 144.062 14.7865 144.094 14.8594C144.125 14.9219 144.161 14.9948 144.203 15.0781C144.245 15.1615 144.281 15.2448 144.312 15.3281C144.354 15.401 144.38 15.4531 144.391 15.4844C144.401 15.4948 144.438 15.5417 144.5 15.625C144.531 15.6667 144.557 15.7031 144.578 15.7344C144.589 15.7552 144.609 15.8125 144.641 15.9062C144.672 15.9896 144.703 16.0833 144.734 16.1875C144.766 16.2917 144.792 16.3906 144.812 16.4844C144.844 16.5677 144.859 16.6198 144.859 16.6406C144.911 16.849 144.969 17.0625 145.031 17.2812C145.104 17.4896 145.198 17.6823 145.312 17.8594C145.312 17.8906 145.354 17.9583 145.438 18.0625C145.521 18.1562 145.568 18.2188 145.578 18.25L145.672 18.6719C145.714 18.849 145.755 18.9948 145.797 19.1094C145.839 19.224 145.865 19.3385 145.875 19.4531C145.875 19.4844 145.885 19.5469 145.906 19.6406C145.938 19.7344 145.969 19.8385 146 19.9531C146.031 20.0573 146.057 20.1562 146.078 20.25C146.109 20.3333 146.125 20.3854 146.125 20.4062C146.146 20.5208 146.198 20.6458 146.281 20.7812C146.365 20.9167 146.448 21 146.531 21.0312C146.542 21.0417 146.578 21.0625 146.641 21.0938C146.714 21.125 146.786 21.1615 146.859 21.2031C146.943 21.2344 147.016 21.2656 147.078 21.2969C147.151 21.3281 147.193 21.3438 147.203 21.3438C147.328 21.4271 147.443 21.4896 147.547 21.5312C147.661 21.5625 147.755 21.6042 147.828 21.6562C147.901 21.6979 147.958 21.7604 148 21.8438C148.042 21.9271 148.062 22.0521 148.062 22.2188C148.062 22.375 147.979 22.5104 147.812 22.625C147.646 22.7292 147.448 22.8177 147.219 22.8906C147 22.9531 146.776 23 146.547 23.0312C146.328 23.0625 146.167 23.0781 146.062 23.0781C145.792 23.0781 145.542 23.0417 145.312 22.9688C145.094 22.8958 144.833 22.8594 144.531 22.8594L143.312 23C143.208 23 143.078 22.9948 142.922 22.9844C142.766 22.9635 142.609 22.9323 142.453 22.8906C142.307 22.8385 142.177 22.7708 142.062 22.6875C141.958 22.6042 141.906 22.4896 141.906 22.3438C141.906 22.1458 141.995 22.0104 142.172 21.9375C142.349 21.8542 142.542 21.7812 142.75 21.7188C142.969 21.6562 143.167 21.5833 143.344 21.5C143.521 21.4062 143.609 21.25 143.609 21.0312V20.9531ZM140.641 16.9219C140.651 16.9219 140.688 16.9323 140.75 16.9531C140.823 16.9635 140.901 16.9792 140.984 17C141.078 17.0208 141.167 17.0417 141.25 17.0625C141.344 17.0833 141.417 17.099 141.469 17.1094L141.828 17.1875C141.839 17.1771 141.88 17.1667 141.953 17.1562C142.026 17.1458 142.104 17.1302 142.188 17.1094L142.5 17.0469L142.203 15.8594C142.182 15.7656 142.161 15.6406 142.141 15.4844C142.13 15.3177 142.125 15.2083 142.125 15.1562C142.125 15.0208 142.109 14.9062 142.078 14.8125C142.057 14.7083 142.026 14.6094 141.984 14.5156C141.943 14.4219 141.896 14.3281 141.844 14.2344C141.792 14.1302 141.74 14.0156 141.688 13.8906C141.667 13.8177 141.594 13.7344 141.469 13.6406C141.354 13.5469 141.255 13.4583 141.172 13.375C141.141 13.3438 141.089 13.3281 141.016 13.3281C140.922 13.3281 140.828 13.3646 140.734 13.4375C140.641 13.5104 140.536 13.5469 140.422 13.5469C140.328 13.5469 140.229 13.625 140.125 13.7812C140.031 13.9375 139.938 14.1198 139.844 14.3281C139.76 14.526 139.688 14.7292 139.625 14.9375C139.573 15.1354 139.542 15.2812 139.531 15.375V16.5625C139.552 16.5938 139.583 16.6562 139.625 16.75C139.667 16.8438 139.698 16.901 139.719 16.9219C139.74 16.9427 139.76 16.9688 139.781 17C139.802 17.0208 139.833 17.0312 139.875 17.0312C139.896 17.0312 139.943 17.026 140.016 17.0156C140.099 17.0052 140.182 16.9948 140.266 16.9844C140.349 16.9635 140.427 16.9479 140.5 16.9375C140.573 16.9271 140.62 16.9219 140.641 16.9219Z" fill="#0E00B0"/>
</svg>
